<svg width="110" height="90" viewBox="0 0 110 90" fill="none" xmlns="http://www.w3.org/2000/svg">
<path d="M109.133 29.9186C104.656 5.35551 73.1296 -0.255891 57.9262 0.00879815C50.1846 0.00879815 30.896 1.64987 15.6739 8.21414C-3.35359 16.4195 -5.31231 37.8593 11.1969 59.8285C27.706 81.7976 57.9262 94.238 74.995 88.6796C92.0639 83.1211 114.729 60.6225 109.133 29.9186Z" fill="#FAE9C8"/>
<path d="M48.5 25.5V31.5" stroke="#59432D" stroke-width="2" stroke-linecap="round" stroke-linejoin="round"/>
<path d="M54.5 25.5V31.5" stroke="#59432D" stroke-width="2" stroke-linecap="round" stroke-linejoin="round"/>
<path d="M60.5 25.5V31.5" stroke="#59432D" stroke-width="2" stroke-linecap="round" stroke-linejoin="round"/>
<path d="M38 61.5H71" stroke="#59432D" stroke-width="2" stroke-linecap="round" stroke-linejoin="round"/>
<path d="M47.6188 61.5C44.7479 60.1827 42.3155 58.069 40.6104 55.4101C38.9054 52.7511 37.9994 49.6587 38 46.5V37.5H71V46.5C71.0006 49.6587 70.0946 52.7511 68.3896 55.4101C66.6845 58.069 64.2521 60.1827 61.3812 61.5" stroke="#59432D" stroke-width="2" stroke-linecap="round" stroke-linejoin="round"/>
<path d="M70.9969 37.5C72.5882 37.5 74.1143 38.1321 75.2395 39.2574C76.3647 40.3826 76.9969 41.9087 76.9969 43.5V45C76.9969 46.5913 76.3647 48.1174 75.2395 49.2426C74.1143 50.3679 72.5882 51 70.9969 51H70.3594" stroke="#59432D" stroke-width="2" stroke-linecap="round" stroke-linejoin="round"/>
</svg>
