<svg width="120" height="90" viewBox="0 0 120 90" fill="none" xmlns="http://www.w3.org/2000/svg">
<path d="M0.946167 29.9186C5.83024 5.35551 40.2222 -0.255891 56.8077 0.00879815C65.2531 0.00879815 86.2953 1.64987 102.901 8.21414C123.658 16.4195 125.795 37.8593 107.785 59.8285C89.7752 81.7976 56.8077 94.238 38.1872 88.6795C19.5667 83.1211 -5.15892 60.6225 0.946167 29.9186Z" fill="#FAE9C8"/>
<path d="M52 64.5H67" stroke="#59432D" stroke-width="2" stroke-linecap="round" stroke-linejoin="round"/>
<path d="M59.5 58.5V48" stroke="#59432D" stroke-width="2" stroke-linecap="round" stroke-linejoin="round"/>
<path d="M53.5 42L59.5 48L65.5 42" stroke="#59432D" stroke-width="2" stroke-linecap="round" stroke-linejoin="round"/>
<path d="M50.2564 52.3138C48.4706 50.9253 47.0243 49.1485 46.027 47.1182C45.0297 45.0878 44.5076 42.8571 44.5002 40.595C44.4627 32.4575 51.0064 25.6888 59.1439 25.5013C62.2933 25.4266 65.3862 26.3454 67.9841 28.1273C70.5819 29.9093 72.5528 32.4639 73.6172 35.4289C74.6816 38.3939 74.7855 41.6187 73.9142 44.6461C73.0428 47.6734 71.2404 50.3496 68.7627 52.295C68.2153 52.7181 67.772 53.2608 67.4665 53.8815C67.161 54.5022 67.0015 55.1845 67.0002 55.8763V57.0013C67.0002 57.3991 66.8421 57.7806 66.5608 58.0619C66.2795 58.3433 65.898 58.5013 65.5002 58.5013H53.5002C53.1023 58.5013 52.7208 58.3433 52.4395 58.0619C52.1582 57.7806 52.0002 57.3991 52.0002 57.0013V55.8763C51.9955 55.1897 51.8363 54.5129 51.5344 53.8962C51.2326 53.2795 50.7958 52.7387 50.2564 52.3138V52.3138Z" stroke="#59432D" stroke-width="2" stroke-linecap="round" stroke-linejoin="round"/>
</svg>
