<svg xmlns="http://www.w3.org/2000/svg" width="176" height="180" fill="none" viewBox="0 0 176 180">
  <path fill="#F2BE55" d="M173.248 121.036a30.65 30.65 0 0 0-1.327-3.309c-.491-1.054-1.127-2.127-1.491-3.273-.8-2.29-1.091-4.69-1.581-6.998-.492-2.328-1.055-4.636-2.073-6.745a13.324 13.324 0 0 0-1.927-2.89c-.746-.891-1.673-1.564-2.618-2.346-3.708-3.09-6.635-7.054-9.562-10.671-.782-.819-1.709-1.455-2.763-1.837-1.128-.382-2.2-.836-3.346-1.145-2.272-.654-4.599-1.181-6.908-1.89a33.722 33.722 0 0 1-3.418-1.273 28.268 28.268 0 0 1-1.654-.818l-.4-.237-.2-.108h-.054c-.2-.073-.146-.055-.182-.019-.037.019-.073.091-.11.182l-.163.382c-.055.09-.073.2-.091.255.091.036.236.108.382.126l.854.237c1.164.327 2.364.727 3.473 1.4a7.43 7.43 0 0 1 1.527 1.2c.473.49.8.927 1.2 1.381l2.308 2.727c1.564 1.8 3.127 3.545 4.982 4.908 1.945 1.328 3.926 2.873 5.544 4.71 1.636 1.835 2.982 3.98 3.818 6.308.2.618.418 1.108.636 1.617.182.491.546 1.073.764 1.655a14.5 14.5 0 0 1 1 3.599c.182 1.273.164 2.418.327 3.563a27.33 27.33 0 0 0 .654 3.436 37.74 37.74 0 0 0 1 3.382c.4 1.127.745 2.363.891 3.599.146 1.255.109 2.546-.182 3.782-.309 1.236-.709 2.345-1.199 3.49a21.154 21.154 0 0 1-6.727 8.617 18.267 18.267 0 0 0-4.563 5.163c-.618.964-1 2.109-1.818 3.164-.437.545-.872.909-1.291 1.345l-1.29 1.254c-.873.837-1.782 1.655-2.764 2.382-3.927 2.836-8.18 5.09-12.508 7.145-2.181 1.072-4.653 1.69-7.108 1.654-1.236 0-2.454-.2-3.654-.509-1.199-.346-2.254-.728-3.418-.982-2.29-.545-4.635-.745-6.98-.527-1.164.109-2.309.345-3.491.581a75.377 75.377 0 0 1-3.545.619c-2.363.381-4.745.673-7.144.8-1.2.054-2.382.127-3.618.054-1.236-.091-2.473-.473-3.509-1.181-1.945-1.437-3.781-3.018-5.29-4.909-.746-.946-1.418-1.963-1.946-3.073-.545-1.09-.89-2.272-1.254-3.381-.745-2.254-1.636-4.472-2.709-6.581a39.65 39.65 0 0 0-1.763-3.09 9.98 9.98 0 0 1-1.472-3.327c-.546-2.382-.328-4.854.272-7.181.618-2.345 1.71-4.527 3-6.545.672-1.036 1.49-1.909 2.2-2.854.363-.473.69-.945.963-1.454.291-.509.473-1.037.236-1.419-.218-.363-.818-.581-1.309-.563-.508.018-.981.309-1.4.691-.872.782-1.635 1.672-2.344 2.618-1.4 1.89-2.582 3.981-3.8 6.017-1.2 2.055-2.31 4.163-3.163 6.345-.837 2.2-1.4 4.508-1.527 6.835-.145 2.346.036 4.709.89 6.872.419 1.073 1 2.109 1.527 3.182.564 1.072 1 2.236 1.364 3.363.763 2.291 1.327 4.618 1.89 6.945.473 2.327 1.291 4.49 2.71 6.344 1.381 1.836 3.235 3.345 5.272 4.4 2.054 1.072 4.326 1.672 6.635 2.127 2.29.472 4.654.472 7.072.799 1.218.146 2.418.473 3.563.764 1.163.291 2.327.6 3.472.946 2.309.672 4.6 1.399 6.836 2.272a67.94 67.94 0 0 1 3.327 1.381c1.109.51 2.145 1 3.254 1.4 2.2.8 4.509 1.327 6.854 1.491 2.327.164 4.708-.091 6.872-.945 2.181-.836 4.108-2.255 5.708-3.982 1.618-1.727 3.109-3.617 4.763-5.344 1.636-1.746 3.345-3.418 5.072-5.054l5.181-4.945c.873-.818 1.691-1.673 2.563-2.491a17.57 17.57 0 0 1 2.909-2.127 17.093 17.093 0 0 1 3.291-1.436 19.234 19.234 0 0 0 3.254-1.436c2.072-1.164 3.854-2.8 5.272-4.727 1.781-1.618 3.054-3.654 4.254-5.708 1.218-2.055 2.309-4.163 3.127-6.418.782-2.236 1.4-4.581 1.527-6.926.018-1.182-.472-2.272-.8-3.436-.364-1.145-.654-2.291-1.054-3.418l.018.019Z"/>
  <path fill="#F2BE55" d="M148.378 142.142c.218-.4.436-.818.673-1.2a16.307 16.307 0 0 1 1.654-2.182c1.2-1.399 2.672-2.472 3.872-3.69 2.436-2.436 4.418-5.454 5.545-8.653.509-1.619.636-3.328.364-5-.128-.836-.364-1.655-.655-2.472a53.422 53.422 0 0 1-.836-2.564 30.554 30.554 0 0 1-1.091-5.308 24.517 24.517 0 0 0-1.054-5.109c-1.073-3.326-2.6-6.526-4.8-9.235-1.09-1.363-2.363-2.563-3.745-3.635a67.549 67.549 0 0 1-4.145-3.382c-1.327-1.2-2.599-2.473-3.726-3.854-1.182-1.364-1.964-3-3.436-3.945-1.418-1-3.2-1.382-4.945-1.327-.436 0-.709.272-.963.636l-.819 1.018-1.654 2.072c1.6.419 3.454 1.019 4.708 2.346 1.328 1.308 1.727 3.163 2.4 4.78.618 1.673 1.109 3.364 1.818 4.982a77.04 77.04 0 0 0 2.218 4.818c.8 1.581 1.636 3.145 2.49 4.69.837 1.563 1.782 3.073 2.419 4.8.308.854.527 1.763.6 2.69.054.927.018 1.781.035 2.691l.037 5.326v2.673l.036 1.327c0 .418 0 .945-.108 1.436a4.566 4.566 0 0 1-1.619 2.472c-.763.546-1.49 1-2.236 1.509-1.49.982-2.927 2-4.454 2.963a20.195 20.195 0 0 1-5.054 2.109c-.89.237-1.781.4-2.69.51a8.941 8.941 0 0 0-2.4.617c-1.545.619-2.927 1.673-4.236 2.819-2.617 2.326-5.017 4.981-7.926 7.18-1.454 1.055-2.909 2.127-4.636 2.909-1.691.8-3.69 1.072-5.545.818-1.872-.236-3.581-.836-5.272-1.4-1.727-.6-3.399-1.436-4.872-2.599a13.839 13.839 0 0 1-3.6-4.218c-.854-1.618-1.69-3.072-2.563-4.672-1.709-3.127-3.254-6.418-4.163-9.944-.454-1.746-.763-3.582-.672-5.436.036-.927.254-1.873.382-2.691.127-.836.2-1.745.218-2.563.036-.636-.473-1.018-1.273-1.2-.182-.055-.437-.091-.473-.073-.054 0 0-.036-.09.091-.055.109-.11.309-.183.546-.09.29-.181.454-.29.672-.4.837-.91 1.618-1.473 2.345-.29.364-.582.709-.89 1.037l-.837.982c-2.145 2.69-3.345 6.126-3.272 9.58.018 1.727.345 3.454.963 5.072l.51 1.2.617 1.145c.455.782.873 1.582 1.237 2.4.745 1.636 1.363 3.29 2 4.963.6 1.673 1.109 3.381 1.89 4.927.782 1.545 1.91 2.909 3.181 4.126a45.48 45.48 0 0 0 1.982 1.746c.69.563 1.345 1.127 2.127 1.454.782.346 1.618.473 2.51.454.871 0 1.762 0 2.653-.054a56.778 56.778 0 0 0 5.272-.546c3.509-.454 6.945-1.399 10.526-1.708 1.782-.146 3.6-.109 5.363.218.891.163 1.763.4 2.6.691.836.309 1.654.563 2.509.691 3.472.581 6.944-.546 10.053-2.164 3.145-1.581 6.163-3.491 9.163-5.326 2.944-1.873 5.598-4.255 7.362-7.236.218-.363.418-.745.636-1.127l.073-.018ZM53.262 30.901a10.372 10.372 0 0 0-2.126-1.018c-1.51-.436-3.127-.8-4.636-.6a5.27 5.27 0 0 0-2.09.763 29.21 29.21 0 0 0-1.928 1.419c-1.254 1-2.4 2.127-3.345 3.4-.909 1.235-1.672 2.78-2.709 4.09-1.018 1.345-2.2 2.581-3.581 3.58-.71.51-1.4.91-2.09 1.364-.692.437-1.4.873-2.146 1.273-.745.4-1.545.727-2.236 1.054-.71.346-1.382.746-2.036 1.182-2.6 1.764-4.49 4.418-5.454 7.417-.964 3-1.109 6.272-1.182 9.508a96.132 96.132 0 0 0 .455 9.708c.363 3.2 1.072 6.381 1.818 9.563.382 1.563.69 3.254 1.109 4.726a15.426 15.426 0 0 0 2.036 4.236c.872 1.291 2.054 2.436 3.09 3.745 1.037 1.29 2.018 2.618 2.91 4.036.89 1.436 1.58 2.872 2.599 4.09 1 1.218 2.163 2.309 3.508 3.145a14.065 14.065 0 0 0 4.345 1.836c.764.182 1.564.31 2.364.382.8.055 1.672.2 2.472.4 1.618.364 3.163.873 4.727.945 1.6.073 3.217-.036 4.8-.345 3.145-.6 6.071-2.272 8.108-4.763 2.072-2.472 3.435-5.49 4.635-8.508l1.745-4.581c.291-.782.636-1.491.6-2.273 0-.781-.29-1.527-.764-2.163a5.945 5.945 0 0 0-.8-.854c-.163-.127-.254-.164-.29-.11-.091.091-.182.273-.255.473a49.37 49.37 0 0 0-.963 2.254 31.513 31.513 0 0 0-1.473 4.654c-.218.8-.527 1.619-1.054 2.291-.49.673-1.054 1.29-1.69 1.836a11.77 11.77 0 0 1-4.346 2.418c-1.6.509-3.272.6-4.836.909-.781.145-1.527.436-2.38.6a9.876 9.876 0 0 1-2.528.163c-1.69-.09-3.345-.636-4.818-1.4-1.49-.763-2.872-1.78-4.017-3.035-2.309-2.51-3.636-5.69-4.254-9.017-.237-1.71-.11-3.363-.182-4.945-.11-1.545-.345-3.236-.564-4.818-.236-1.6-.563-3.163-1.072-4.672-.582-1.6-.8-3.381-.564-5.09.273-1.746.818-3.236 1.291-4.836a100.534 100.534 0 0 1 1.636-4.654c.582-1.527 1.2-3.054 1.854-4.563.6-1.545 1.528-3.054 2.727-4.254a13.812 13.812 0 0 1 4.163-2.855c1.564-.672 3.073-1.145 4.49-1.908.71-.364 1.4-.782 2.073-1.218a25.46 25.46 0 0 1 2.109-1.309c1.436-.836 3-1.436 4.563-1.982 1.564-.527 3.272-.927 4.964-.618 1.672.273 3.217 1.11 4.471 2.182a15.962 15.962 0 0 1 1.764 1.745c.6.6.909 1.473 1 2.29.109.837.109 1.637.273 2.437.054.418.054.818.127 1.218.036.382.272.8.363 1.072.11-.69.273-1.563.273-2.363.018-.818-.055-1.636.036-2.473.055-.418.146-.835.31-1.217.2-.4.4-.71.4-1.073.035-.727-.564-1.4-.928-2.127-.818-1.418-1.581-2.89-2.436-4.236-.909-1.327-2.018-2.509-3.309-3.454-1.29-.945-2.745-1.636-4.272-2.145-1.545-.437-3.181-.946-4.654-1.69-.745-.364-1.472-.819-2.145-1.255l-.055.018Z"/>
  <path fill="#F2BE55" d="M77.86 102.838c1.436.745 2.853 1.545 4.235 2.327 1.382.745 2.8 1.399 4.29 1.89 1.473.491 3 .818 4.546.964 1.545.127 3.127.145 4.58-.2 2.946-.727 5.746-2.491 7.6-4.891.436-.618.854-1.254 1.109-1.945.291-.727.582-1.509.891-2.254a53.254 53.254 0 0 1 2.054-4.381c1.491-2.873 3.163-5.618 4.854-8.344 1.727-2.71 3.327-5.473 4.999-8.2L122 69.587c.872-1.364 1.563-2.763 2.018-4.272.454-1.51.636-3.09.563-4.672-.146-3.164-1.345-6.2-2.945-8.945-.4-.69-.836-1.345-1.309-1.981-.473-.636-1-1.236-1.49-1.89a16.939 16.939 0 0 1-2.327-4.255 18.45 18.45 0 0 1-1.055-4.745c-.164-1.618 0-3.236-.145-4.8a12.72 12.72 0 0 0-.382-2.326c-.2-.745-.527-1.49-.8-2.236l-1.691-4.472c-1.2-2.91-3.181-5.49-5.818-7.163-2.672-1.636-5.653-2.818-8.689-3.654a37 37 0 0 0-9.363-1.255c-3.163-.072-6.29.328-9.199 1.51-2.908 1.145-5.472 3.053-7.599 5.362l-.4.437-.273.272c.092.11.273.418.419.6.473.655.91 1.345 1.345 2.036.855 1.382 1.618 2.8 2.345 4.236l.527 1.09c.091.183.182.383.219.4 0 0 .054 0 .145-.054a5.46 5.46 0 0 1 2.509-.418c1.673.127 3.2.546 4.78.891 3.128.782 6.2 1.69 9.218 2.818a15.166 15.166 0 0 1 7.254 6.18c1.527 2.8 3.09 5.691 5.617 7.69a42.973 42.973 0 0 1 3.454 3.364c.546.582 1.109 1.145 1.655 1.764.527.617.981 1.29 1.363 2 .764 1.436 1.182 3.017 1.382 4.617.182 1.6.236 3.236 0 4.836-.218 1.6-.619 3.163-.927 4.726-.291 1.582-.709 3.164-1.291 4.673-.545 1.527-1.363 2.944-2.036 4.38a43.968 43.968 0 0 0-1.836 4.4 30.76 30.76 0 0 0-1.254 4.563c-.165.764-.255 1.545-.365 2.327-.09.837-.272 1.654-.563 2.454-1.145 3.236-3.727 5.636-6.508 7.345-2.836 1.745-6.2 2.564-9.49 2.527-3.309-.018-6.563-.745-9.599-1.927-.763-.291-1.508-.618-2.254-.945-.727-.346-1.418-.618-2.127-.8a6.086 6.086 0 0 0-2.127-.164h-.055v.218l-.272 3.618-.036.564v.072c.072.036.545.182.817.291 1.546.564 3.019 1.254 4.473 2l-.019-.036Z"/>
  <path fill="#F2BE55" d="M85.804 109.018c-1.036-.345-2.036-.872-2.945-1.345l-2.8-1.454c-1.872-.945-3.727-2.054-5.599-2.799a11.944 11.944 0 0 0-1.436-.455c-.491-.127-1.036-.237-1.073-.127-.2.145-.509.69-.763 1.127-.273.436-.564.909-.8 1.327-.09.145-.127.272-.146.309.037.036.2.181.364.273l1.327.836c.89.564 1.8 1.163 2.636 1.818.418.327.836.69 1.236 1.072.382.4.71.71 1.127 1 .782.545 1.764 1.037 2.673 1.491.927.454 1.89.854 2.872 1.236.982.364 1.964.727 2.945.891 1 .164 2.018.163 3-.054.963-.255 2.036-.582 3.09-.746a23.458 23.458 0 0 1 3.182-.309c1.018-.036 2.018-.291 2.854-.818.8-.582 1.71-1.273 2.654-1.745.928-.528 2.018-.8 2.963-1.146 1.909-.763 3.491-2.236 4.691-3.945 2.581-3.308 4.508-7.108 7.162-10.417 1.292-1.672 2.837-3.144 4.455-4.49a64.973 64.973 0 0 0 4.527-4.4c.727-.763 1.49-1.49 2.181-2.272.691-.781 1.345-1.618 2-2.436 1.327-1.636 2.454-3.418 2.999-5.472 1.291-4 2.127-8.163 2.164-12.362.072-4.181-.873-8.435-3.254-11.853-.564-.873-1.309-1.6-1.927-2.509a9.488 9.488 0 0 1-1.309-2.981c-.273-1.055-.328-2.164-.328-3.218 0-1.055 0-2.109-.054-3.145-.291-4.163-.728-8.38-1.073-12.58-.218-2.11-.236-4.218-.727-6.181a15.578 15.578 0 0 0-2.527-5.49c-2.4-3.2-5.835-6.164-9.853-6.109-.982-.018-1.927.236-3.091.345-1.108.11-2.272.037-3.381-.29-1.146-.364-2-.873-2.982-1.328a42.678 42.678 0 0 1-2.836-1.508c-1.873-1.128-3.508-2.382-5.308-3.455-.89-.545-1.782-1.09-2.69-1.581-.928-.527-1.782-.964-2.746-1.255-1.89-.6-3.927-.581-5.926-.181-1 .2-2 .472-2.982.763-.472.146-1.054.327-1.418.491-.4.182-.781.454-1.145.764a9.367 9.367 0 0 1-2.855 1.8c-1.017.436-2.199.636-3.144.854a16.551 16.551 0 0 0-5.509 2.472c-.818.582-1.509 1.255-1.981 2.073-.492.8-.673 1.763-.91 2.818l-.363 1.527c-.127.49-.164.963-.036 1.054.127.2.618.473 1.072.69l1.418.692c.946.454 1.946.981 2.8 1.763.218.2.418.418.563.564a.875.875 0 0 0 .182.145c.055-.036.218-.164.328-.273l.563-.563a29.759 29.759 0 0 1 5.072-3.963c1.855-1.146 3.927-1.891 6.036-2.327 2.109-.418 4.254-.564 6.38-.582 2.11 0 4.255 0 6.382.364 2.109.327 4.181.89 6.2 1.545 2.017.69 3.98 1.454 5.926 2.327a14.554 14.554 0 0 1 5.108 3.908c1.4 1.655 2.4 3.582 3.2 5.527.818 1.963 1.527 3.963 2.036 6.036.509 2.054.836 4.18.945 6.29.073 1.054 0 2.145.037 3.163.036 1.018.236 2.054.581 3.018.327.982.8 1.909 1.364 2.781.545.873 1.236 1.672 1.854 2.545a33.65 33.65 0 0 1 3.272 5.436c.891 1.927 1.564 3.982 1.746 6.109a15.471 15.471 0 0 1-.764 6.308c-1.454 4.036-3.89 7.526-5.999 11.162-2.127 3.636-4.218 7.29-6.527 10.835-2.399 3.472-4.381 7.145-5.799 11.09-.182.49-.364.999-.491 1.454-.127.473-.291 1.109-.636 1.581a19.132 19.132 0 0 1-1.963 2.564c-1.455 1.6-3.237 2.963-5.254 3.799-1 .437-2.054.746-3.127.946-1.09.236-2.236.2-3.31.091-1.072-.11-2.09-.273-3.107-.291a11.601 11.601 0 0 1-3.255-.6l-.018-.019Z"/>
  <path fill="#F2BE55" d="M69.697 100.384c.437-1.982.254-4.164.055-6.11-.291.292-.673.728-.837 1.183-.181.472-.308.981-.473 1.472-.308.982-.581 1.982-.945 2.963-.709 1.964-1.636 3.854-2.836 5.563-1.2 1.709-2.709 3.236-4.472 4.4-1.745 1.2-3.745 1.963-5.745 2.527-2 .563-4.126.945-6.272.727-1.054-.091-2.127-.4-3.09-.709a34.56 34.56 0 0 0-2.982-.782c-1-.236-2.017-.418-3.035-.6a10.348 10.348 0 0 1-3.073-.945c-1.927-.982-3.581-2.309-5.072-3.818-.745-.763-1.4-1.6-1.982-2.49a79.758 79.758 0 0 0-1.763-2.546 107.466 107.466 0 0 0-3.763-4.926c-1.255-1.618-2.745-3.127-3.745-5.09a10.64 10.64 0 0 1-1.018-3.09c-.2-1-.418-2-.673-3-1.054-3.927-2.509-7.945-2.854-12.18a26.565 26.565 0 0 1-.09-3.183l.2-3.108.435-6.217c.091-2.055.418-4.236 1.037-6.254a29.619 29.619 0 0 1 1.09-3c.418-.982.982-1.981 1.673-2.818 1.382-1.727 3.218-2.963 5.072-3.981 1.89-1 3.727-1.8 5.436-2.927 1.69-1.09 3.236-2.4 4.49-3.945 1.2-1.6 2.472-3.363 3.909-4.89 1.436-1.564 3.036-2.982 4.817-4.145.91-.6 1.927-1.09 3.036-1.346 1.109-.272 2.29-.218 3.382.091a8.923 8.923 0 0 1 1.545.637l1.363.745c.891.491 1.837 1 2.727 1.509.891.509 1.782.982 2.69 1.273.928.236 2.037.545 3 .927 1.982.781 3.819 1.854 5.546 3.108.872.655 1.617 1.491 2.217 2.4.6.946 1.018 1.855 1.527 2.763l1.454 2.745s.055.091.073.146c.037-.055.073-.11.127-.182l.819-1.309c.254-.436.563-.872.8-1.309.218-.436.381-.89.436-1.345a3.058 3.058 0 0 0-.091-1.345 22.557 22.557 0 0 0-.509-1.436c-.727-1.91-1.69-3.727-3.09-5.163-.673-.728-1.528-1.31-2.346-1.927a32.76 32.76 0 0 0-2.563-1.691c-3.509-2.127-7.472-3.509-11.562-3.8-1.018-.054-2.054-.072-3.072 0-1 .073-2.128.164-3.164 0-2.109-.309-4.036-1.072-6.072-1.345-2.018-.327-4.09-.382-6.108 0-2 .4-3.909 1.254-5.545 2.472-3.436 2.31-6.363 5.273-9.271 8.2l-4.309 4.49c-1.418 1.509-2.945 2.908-4.018 4.672a15.629 15.629 0 0 0-2.163 5.672c-.182 1-.2 2.018-.327 3.072a26.373 26.373 0 0 1-.51 3.11 22.217 22.217 0 0 1-.927 3.017c-.418 1-.8 1.872-1.018 2.872-.436 1.964-.309 4 .164 5.963 1.054 3.945 2.4 8.017 2.454 12.271.055 2.09 0 4.163.255 6.145.327 2.127.09 4.236.4 6.2.836 3.908 2.381 7.853 4.908 10.962 1.255 1.581 2.8 2.908 4.49 3.999 1.673 1.109 3.618 1.8 5.509 2.745 3.763 1.855 7.308 3.927 11.126 5.491 3.781 1.635 7.654 3.09 11.708 3.726 2.018.291 4.108.491 6.108.345 2-.181 3.963-.872 5.545-2.108 3.308-2.455 4.49-6.709 6.872-10.126.6-.873 1.308-1.618 1.8-2.527a10.09 10.09 0 0 0 1.09-2.855v-.035Zm18.398 31.614c.8 2.144 1.8 4.236 2.89 6.253.546 1 1.146 2 1.764 2.981.636.982 1.218 1.928 1.981 2.728 1.49 1.654 3.49 2.727 5.691 3.218 1.163.272 2.345.617 3.363.89 1.072.237 2.182.237 3.272.055 2.164-.4 4.218-1.582 6.09-2.872.927-.655 1.764-1.455 2.636-2.237l2.6-2.327c1.764-1.527 3.381-3.199 5.363-4.545 1-.654 2.109-1.163 3.309-1.363a23.51 23.51 0 0 0 3.345-.837c2.2-.708 4.29-1.708 6.344-2.817a71.573 71.573 0 0 0 3.036-1.727c1.018-.564 1.982-1.164 2.564-2.146.618-.945.745-2.072.781-3.235l.2-3.491c.109-2.327.309-4.654.055-6.926-.236-2.273-.909-4.491-2.127-6.381-.563-1.018-1.182-2.091-1.691-3.073-.545-1-1.181-1.963-1.781-2.981-.6-1-1.182-2.054-1.637-3.163-.454-1.145-.781-2.218-1.163-3.327l-1.127-3.309c-.364-1.109-.782-2.018-1.582-2.763-.764-.745-1.745-1.272-2.781-1.745l-1.582-.71c-.091-.036-.127-.036-.327.073-.164.128-.4.346-.6.546l-2.527 2.327c-.109.164-.109.09-.037.309.092.163.292.454.437.69l.963 1.473c1.291 1.945 2.619 3.872 3.654 5.981 1.055 2.09 1.764 4.454 1.691 6.799l-.145 6.981c-.037 1.145.109 2.345-.218 3.491a6.51 6.51 0 0 1-1.782 3c-.781.854-1.691 1.636-2.708 2.217-1.019.619-2.146.946-3.237 1.346-2.163.836-4.272 1.836-6.144 3.217a20.687 20.687 0 0 0-2.618 2.254c-.419.419-.746.837-1.182 1.292-.418.436-.927.8-1.454 1.09-2.164 1.055-4.563 1.509-6.963 1.4-2.418-.109-4.727-.927-6.835-1.982-1.073-.527-2.11-1.181-3.018-2.035-.928-.873-1.564-1.873-2.237-2.855-.654-1-1.236-2.054-1.69-3.181-.473-1.109-.673-2.382-1.073-3.254-.109-.2-.181-.291-.309-.346-.109-.073-.327-.109-.582-.127-.509-.036-1.109 0-1.672 0-.255.018-.637.036-.672.054-.092.037-.092.037-.128.146l-.309 1.691c-.2 1.127-.382 2.254-.4 3.363-.055 1.109.127 2.163.382 3.309a46.245 46.245 0 0 0 1.927 6.581Z"/>
  <path fill="#F2BE55" d="M74.224 32.864a21.077 21.077 0 0 0-.946-3.108c-.763-2.018-1.872-3.909-3.18-5.654-1.328-1.71-2.783-3.382-4.51-4.672a13.69 13.69 0 0 0-5.89-2.491c-1.072-.2-2.145-.218-3.254-.309l-3.309-.218c-2.18-.146-4.436-.236-6.599-.891-1.072-.29-2.109-.836-3.072-1.273a11.64 11.64 0 0 0-3.127-.8c-2.163-.254-4.363-.145-6.49.4-2.127.528-4.127 1.437-6.09 2.418-1.964.982-3.89 2.037-5.8 3.145-3.708 2.31-7.871 4.236-10.271 7.927-2.382 3.672-4.145 7.708-5.981 11.707-1.927 3.945-3.2 8.127-4.072 12.435-.455 2.145-.8 4.309-1.146 6.49-.381 2.182-.672 4.29-.345 6.4.145 1.054.436 2.072.836 3.053a22.12 22.12 0 0 1 1.036 3.219c.273 1.09.4 2.272.473 3.344l.273 3.291.527 6.581.273 3.29c.109 1.073.309 2.127.581 3.164.546 2.09 1.418 4.036 2.51 5.963.508 1 .98 2.017 1.38 3.072.4 1.072.692 2.091 1.128 3.091a23.832 23.832 0 0 0 7.853 10.107c1.728 1.291 3.655 2.346 5.654 3.2 1.982.927 4.09 1.345 6.272 1.563l6.581.564c2.2.182 4.4.363 6.581.655 2.2.29 4.382.708 6.49 1.363 1.036.345 2.128.418 3.218.364a17.25 17.25 0 0 0 1.637-.182c.527-.091 1.163-.127 1.472-.437-.8-.254-1.872-.145-2.8-.236a76.125 76.125 0 0 1-2.89-.254 50.809 50.809 0 0 1-5.709-1.037c-3.763-.927-7.399-2.327-10.871-3.999-3.49-1.672-6.872-3.509-10.344-5.145-1.745-.782-3.545-1.69-5.072-2.927-1.564-1.2-2.927-2.654-4.073-4.236a26.517 26.517 0 0 1-4.49-10.78c-.345-1.927-.527-3.872-.69-5.781-.183-1.963-.11-3.909-.146-5.818 0-3.78-1-7.49-1.818-11.253-.382-1.89-.927-3.745-1.018-5.8a10.837 10.837 0 0 1 .309-3.053 8.15 8.15 0 0 1 .527-1.455c.236-.49.418-.836.582-1.29.345-.855.509-1.71.654-2.673l.982-5.672c.164-.963.364-1.945.654-2.909.564-1.909 1.491-3.781 2.855-5.308l3.836-4.309c2.545-2.89 5.144-5.78 8.035-8.399 2.854-2.636 6.236-4.963 10.126-5.944 1.945-.51 3.963-.582 5.908-.51 1.964.073 3.927.328 5.836.782 1.854.437 3.709.764 5.545.618 2.036-.163 4 .237 5.89.546 1.909.345 3.854.763 5.69 1.545.91.382 1.8.89 2.618 1.418l2.472 1.49c1.655 1.019 3.236 2.237 4.563 3.71a12.728 12.728 0 0 1 1.764 2.4c.236.381.436.78.618 1.199v-.036a22.522 22.522 0 0 0-.291-1.6l.055-.055Z"/>
  <path fill="#F2BE55" d="M63.898 59.825c1.163-.873 2.345-1.709 3.49-2.582 1.182-.909 1.709-2.145 1.527-3.654-.145-1.181-.454-2.345-.49-3.527-.055-2.163-1.146-3.672-2.764-4.853-1.745-1.273-3.654-2.328-5.926-2-1.691.236-3.346.781-4.782 1.763-2 1.382-4.18 2.345-6.38 3.309-1.873.818-3.655 1.8-5.491 2.69-2.309 1.11-3.763 2.873-4.8 5.145-1.545 3.364-2.726 6.854-3.853 10.362-.928 2.91-1.528 5.818-.146 8.763.091.2.11.436.164.673.909 3.89 1.127 7.89 1.527 11.853.29 2.927.89 5.78 2.6 8.29 2.454 3.636 5.762 5.817 10.253 5.563 2.254-.127 4.49-.619 6.727-1.055 4.071-.818 6.798-3.308 8.344-7.108.854-2.109 1.345-4.327 2.254-6.417.163-.382.254-.819.073-1.255-.146-.345-.382-.654-.764-.709-.382-.054-.382.382-.545.6-1.727 2.254-3.818 3.782-6.836 3.472-4.018-.418-4.8-1-5.654-4.908-.527-2.418-1.508-4.472-3.49-6.017-.473-.455-.964-.91-1.436-1.364-.528-.527-.855-1.2-.891-1.927-.054-1.29.054-2.581.6-3.781.6-1.29 1.073-2.618 1.636-3.927 1.073-2.491 2.581-4.763 4.945-6.145 2.854-1.672 5.854-3.254 9.235-1.127.364.236.6.073.873-.145v.018Zm26.47 38.159a23.153 23.153 0 0 0 6.398-1.982c2-.964 3.872-2.272 5.036-4.09.6-.891.982-1.909 1.236-2.945.055-.273.109-.527.146-.8.054-.31.109-.6.181-.891.146-.582.31-1.127.419-1.654.508-2.237 1.054-4.509 1.872-6.709.4-1.09.873-2.181 1.436-3.218.273-.508.6-1.054.891-1.508.255-.437.455-.927.636-1.436.673-2.164 1.4-4.364 2.036-6.527.619-2.182 1.146-4.381 1.2-6.581.055-2.2-.436-4.381-1.636-6.2-.291-.453-.636-.872-.981-1.29l-3.546-3.709c-.763-.836-1.617-1.618-2.417-2.49a28.815 28.815 0 0 1-2.218-2.709 26.16 26.16 0 0 1-1.836-2.981c-.51-1.055-1.055-1.964-1.764-2.818-1.418-1.71-3.327-2.982-5.381-3.909-2.054-.927-4.272-1.509-6.49-2.072-2.236-.546-4.418-1.291-6.672-1.473-.563-.054-1.127-.073-1.6.11-.49.163-.782.6-.763 1.126 0 .51.2 1.055.308 1.636.128.564.2 1.146.255 1.728a15.813 15.813 0 0 1-.09 3.472c-.073.563-.2 1.163-.31 1.69-.036.255.018.382.237.491.2.091.508.2.781.31 4.309 1.617 8.363 3.835 12.526 5.726 1.036.473 2.09.927 3.145 1.346 1.073.4 2.182.945 3.127 1.654 1.964 1.436 3.218 3.636 3.927 5.871.691 2.273.891 4.6 1.145 6.873.309 2.472-.509 4.8-1.218 6.944-.745 2.2-1.69 4.29-2.327 6.454a17.44 17.44 0 0 0-.4 1.618c-.091.527-.255 1.218-.509 1.763-.527 1.127-1.181 2.036-1.927 3-1.49 1.873-3.527 3.218-5.672 4.145-2.145.854-4.272 1.782-6.599 2.218-1.145.218-2.345.273-3.527.09-1.182-.181-2.254-.544-3.381-.8-1.11-.29-2.182-.654-3.31-.817-1.09-.2-2.326-.237-3.344-.328 1.563 1.546 2.618 3.836 2.908 6.127.037.29.073.582.092.872.018.273 0 .673.09.691.037.073.346.055.655.037.29 0 .6 0 .89.036 1.182.127 2.328.6 3.328 1.163 2.017 1.055 4.126 1.873 6.344 2.364 2.2.509 4.473.782 6.654.455l.018-.073Zm4.035 24.851a13.443 13.443 0 0 0 5.218 4.818c2.163 1.091 4.617 1.563 7.09 1.581 1.236 0 2.472-.163 3.617-.581a6.072 6.072 0 0 0 2.909-2.164c1.582-1.927 3.6-3.526 5.89-4.545l3.345-1.654c1.109-.582 2.255-1.054 3.236-1.745a11.778 11.778 0 0 0 2.582-2.436c.327-.455.581-.946.709-1.473.145-.527.127-1.09.145-1.709.018-2.436-.127-4.926-.073-7.453 0-.637.055-1.273.11-1.891.054-.545 0-1.109-.091-1.672-.219-1.11-.709-2.237-1.219-3.309-1.072-2.164-2.544-4.145-3.963-6.2l-.927-1.381s-.091.055-.145.09c-.236.183-.491.346-.727.528a21.268 21.268 0 0 0-2.673 2.472 67.667 67.667 0 0 0-4.654 5.745l-4.272 6.127c-.745 1.018-1.472 2-2.309 2.945-.818.927-1.909 1.763-3.109 2.145-2.327.873-4.435 2.109-6.526 3.491-1.109.69-2.454 1.036-3.763 1.017l-1.818.164-.454.036c-.11 0-.2.037-.255.073-.055.037-.09.073-.09.327.053 1.182.181 2.4.617 3.473.437 1.127 1 2.2 1.618 3.217l-.018-.036Z"/>
  <path fill="#F2BE55" d="M95.457 77.422c.31-.672.51-1.417.728-2.162l.654-2.219 1.345-4.436c.873-2.963 1.69-5.963 1.509-9.053-.127-3.054-1.036-6.217-3.326-8.362-2.291-2.11-5.345-3.055-8.236-4.127a24.781 24.781 0 0 1-2.163-.91c-.71-.345-1.364-.763-2.055-1.108-1.363-.71-2.8-1.273-4.235-1.818l-2.182-.818c-.345-.127-.764-.31-1.018-.364-.291-.054-.346-.018-.51.164-.145.182-.29.582-.472.927l-.509 1.054-1.018 2.091-.509 1.054c.091-.018.182-.036.255-.036h.308c.4-.054.819-.072 1.219-.054 1.636.036 3.344.417 4.763 1.454a6.489 6.489 0 0 1 1.745 1.909c.436.763.727 1.436 1.037 2.2.29.763.526 1.563.654 2.4.09.8.181 1.49.363 2.217a11.52 11.52 0 0 0 1.873 3.963l1.254 2c.4.673.89 1.291 1.2 2.127.327.8.418 1.8.09 2.69-.072.219-.181.437-.272.619l-.254.49a14.52 14.52 0 0 0-1.073 3.164 7.113 7.113 0 0 1-.945 2.309c-.891 1.436-2.273 2.4-3.6 3.217-1.345.819-2.745 1.51-4.108 2.237-.691.363-1.345.727-2.018 1.127-.691.382-1.436.709-2.2.945-1.527.49-3.163.472-4.69.4l-2.31-.055h-.09v.091c.054.146.127.31.218.455.2.31.454.582.727.836.546.509 1.2.945 1.891 1.164.164.054.345.072.49.054l.6-.054c.4-.018.8-.018 1.182 0 1.582.09 3.11.49 4.618.817 1.509.31 3.036.564 4.545.546 3.036-.036 5.926-1.236 8.563-2.745 1.38-.727 2.58-1.527 3.58-2.636 1-1.091 1.764-2.382 2.364-3.745l.018-.019Z"/>
  <path fill="#F2BE55" d="M85.695 68.823c.11-.181.218-.381.31-.581.163-.382.272-.782.272-1.2 0-.836-.4-1.582-.928-2.455a40.2 40.2 0 0 1-1.417-2.599c-.91-1.764-1.71-3.6-2.237-5.509-.672-1.836-.29-4.108-1.909-5.417-.727-.655-1.545-1.2-2.472-1.509a8.52 8.52 0 0 0-2.872-.418c-.473.018-1.037-.018-1.346.145-.29.164-.273.655-.327 1.146-.09 1-.254 1.981-.527 2.963a15.11 15.11 0 0 1-1.073 2.854c-.472.946-1.145 1.764-1.89 2.49-.745.728-1.582 1.328-2.418 1.873-.873.545-1.618 1.037-2.29 1.673-1.382 1.218-2.292 2.854-2.655 4.672-.182.872-.236 1.909-.4 2.89a33.542 33.542 0 0 1-.582 2.945 30.64 30.64 0 0 1-.854 2.873c-.145.454-.4 1-.491 1.327-.073.364-.018.582.236.818 1.49 1.182 3.09 2.309 4.909 2.854 3.708.982 7.835.691 11.362-.945 1.782-.764 3.436-1.854 4.945-3.073.764-.6 1.49-1.254 2.218-1.908.69-.618 1.145-1.382 1.29-2.218.055-.364.073-1 .2-1.49.128-.528.31-1.019.528-1.51.109-.236.254-.472.382-.69h.036Z"/>
  <path fill="#F2BE55" d="m60.68 62.06.29-.508c.073-.145.164-.309.2-.382-.072-.055-.218-.127-.345-.2a3.305 3.305 0 0 0-2-.327c-.69.109-1.363.472-2.109.8-.363.164-.8.327-1.18.436-.364.091-.71.236-1.056.4-1.363.673-2.472 1.836-3.362 3.145-.928 1.273-1.51 2.763-1.946 4.29-.218.764-.4 1.546-.6 2.31-.163.8-.509 1.563-.455 2.254.019.709.346 1.345.855 1.872l1.745 1.636c1.164 1.11 2.273 2.4 2.945 3.982.328.782.528 1.654.546 2.509.036.78 0 1.6.309 2.126.273.528 1.072.8 1.8 1.055.745.255 1.509.436 2.29.455 1.582.09 3.109-.673 4.218-1.764.418-.655.927-1.345 1.273-1.982.108-.327-.292-.582-.619-.782l-1.018-.636-4.09-2.49c-.673-.436-1.472-.837-1.964-1.763-.236-.474-.236-1.055-.163-1.51.09-.472.255-.872.418-1.272.69-1.454 1.254-2.854 1.527-4.363.127-.745.218-1.49.2-2.236a9.862 9.862 0 0 1 .254-2.527c.2-.837.473-1.618.837-2.4.382-.764.818-1.454 1.218-2.127h-.018Z"/>
</svg>
