<svg viewBox="0 0 197 59" fill="none" height="59" width="197" xmlns="http://www.w3.org/2000/svg">
  <path d="M7.519 17.44c.16.196.296.41.403.639.133.216.24.447.32.688l.212.589a1.51 1.51 0 0 0-.332.239 1.61 1.61 0 0 0-.423.29 5.082 5.082 0 0 0-.889.38 3.074 3.074 0 0 1-.546.284 3.202 3.202 0 0 0-.559.255l-1.553.7 1.13 2.18.887 1.52.32.582.505.913c.064 0 .11.098.181.223l.117.422c.306.46.587.936.841 1.426l.618 1.14c.307.604.65 1.188 1.026 1.752.041.087.041.194.136.25.019.043.022.153.086.168l.072.121c.045.084.132.145.113.214.069 0 .046.19.208.38l.577-.32c.154-.134.323-.247.504-.339l1.2-.672c.286-.106.56-.242.818-.407.221-.12.426.035.633.407l.068.13c.236.315.441.652.615 1.007l.203.38c.184.546.189.87.08.984a7.86 7.86 0 0 1-.909.566l-.619.346-.713.395c-.086.053-.128.077-.153.14a2.07 2.07 0 0 0-.377.586c0 .069.093.17.187.334s.2.266.204.38l.295.536.478.866.377.711.226.41.204.38c.377.708.645 1.373 1.131 2.243l.275.501 1.825 3.3a7.7 7.7 0 0 0 .55 1.097l.204.381.28.493.428.791.48.87.18.331c-.14.225-.337.41-.569.54l-.136.072-.441.248-.226.124-.531.296a3.06 3.06 0 0 0-.6.381l-.268-.068h-.177a.177.177 0 0 0-.113-.103l-.226-.41a.997.997 0 0 0-.113-.316 4.078 4.078 0 0 1-.233-.52 6.335 6.335 0 0 0-.434-.897 3.399 3.399 0 0 0-.377-.76l-.475-.871-.377-.707-.615-1.113c-.23-.524-.822-1.604-1.734-3.257l-3.582-6.51-.731-1.52-.894-1.52-.806-1.52c-1.09-1.992-2.075-3.664-3.236-5.777a7.19 7.19 0 0 0-.524-1.064L2 23.94c-.253-.461-1.093-1.901-1.598-2.797-.253-.445-.434-.78-.396-.803l1.417-.794c.555-.255 1.023-.463 1.377-.661a7.48 7.48 0 0 0 .754-.312c.12-.065.23-.147.327-.243l.4-.22c.166-.034.626-.22 1.474-.601.558-.258.936-.414 1.067-.487.2-.056.45.073.698.423m24.155-7.054c.147.547.328 1.235.525 2.162l.3 1.342.106.41.124.461c.106.41.23.87.434 1.451l.173.642.268 1.004c.11.216.144.55.316.995l.276 1.057.185.688.275 1.048.17.643.087.32.038.132c.046.202.114.398.203.585l.158.597.038.136.049.38c.252.76.614 2.14 1.13 4.021.517 1.882.91 3.235 1.166 4.181.154.403.23.676.268.81v.045c.09.169.156.349.196.536l.071.273.038.141.057.228.037.141c.057.08.099.168.124.262.91 2.254 1.422 2.8 1.754 3.04a1.972 1.972 0 0 0 1.711.324h.05a3.007 3.007 0 0 0 1.457-.72 3.05 3.05 0 0 0 .876-1.379 5.98 5.98 0 0 0 .174-2.105.57.57 0 0 1 0-.243.989.989 0 0 0-.05-.38c-.18-1.075-.456-2.326-.753-3.82l-.502-1.877c-.193-.927-.377-1.615-.46-2.132l-.426-1.797-.215-.825-.218-1.019-.483-1.831-.241-1.114-.694-2.61-.4-1.52c-.437-1.65-.912-3.634-1.067-4.23l-.28-1.054-.06-.223-.219-1.026a9.3 9.3 0 0 1-.312-.997l-.147-.546c.034-.058.169-.142.463-.221l.147-.042L39.84 6.5a4.9 4.9 0 0 1 .679-.233c.196-.048.29-.08.354-.045.218.41.401.837.546 1.277l.461 1.74c.13.538.287 1.068.471 1.588l.197 1.122.29 1.102c.082.32.294 1.099.64 2.232l.05.178c.05.201.12.397.206.585l.094.562.054.183c.066.258.15.513.252.76l.185.688.35 1.52.755 2.994.35 1.52.411 1.757c.105.213.182.44.23.672l.087.517.121.456c.015.271.051.54.105.806.032.256.081.51.147.76l.268 1.402c.335 1.553.5 3.138.494 4.728-.057.47-.145.935-.26 1.395-.306.817-.49 1.31-.528 1.364 0 .152-.14.281-.333.531-.158.19-.285.405-.375.636a4.542 4.542 0 0 1-1.373 1.353 9.468 9.468 0 0 1-2.021.885l-.102.026a6.688 6.688 0 0 1-1.565.225c-.495.006-.99-.06-1.466-.197a3.516 3.516 0 0 1-1.629-1.178 16.067 16.067 0 0 1-1.553-2.38c-1.131-2.101-2.12-5.024-3.1-8.74l-.323-1.236-3.298-12.427-.958-3.42-.026-.092-.098-.562a2.626 2.626 0 0 1-.181-.505c0-.046 0-.046.025-.107a1.756 1.756 0 0 1-.097-.563.544.544 0 0 1-.125-.262.727.727 0 0 1-.117-.258l-.052-.187c0-.045.26-.212.754-.448.049 0 .306-.034.663-.083a2.914 2.914 0 0 1 1.008.008l.198-.054c.344-.088.563-.05.624.179.149.369.267.75.35 1.14m24.848-5.556c.596 1.048 1.089 2.697 1.466 4.887.062.328.103.659.12.992l.16.935c.17.98.293 1.391.35 1.718.044.378.057.76.042 1.14.004.22.026.44.063.657 0 .38 0 .916-.022 1.646a16.407 16.407 0 0 1-.8 5.191 6.496 6.496 0 0 1-1.587 2.443l2.123.689c.92.273 1.614 1.018 2.115 2.132.502 1.113.962 2.861 1.357 5.149.234 1.353.377 2.28.441 2.854.08.357.126.72.137 1.087.036.254.113.501.23.73a1.101 1.101 0 0 1-.702.41h-.103l-1.442.255c-.514.042-.777 0-.804-.149-.1-.593-.186-1.188-.257-1.785l-.184-1.073c-.124-.702-.241-1.398-.415-2.093-.512-2.075-.901-3.448-1.206-4.018a3.616 3.616 0 0 0-1.538-1.463c-1.105-.43-1.814-.642-2.16-.58-.05 0-.077.159-.088.379.027.136.038.525.144 1.14l.204 1.17c.281 1.342.418 2.136.474 2.463.253 1.445.434 2.524.495 3.14.034.218.087.433.162.642.034.19.105.319.12.414.008.096.008.193 0 .29l.072.413.124.703a.73.73 0 0 0 .094.273l.042.233.034.186a.164.164 0 0 0-.027.148c.023.145-.248.334-.825.581-.29.096-.59.163-.894.201-1.097.194-1.662.199-1.745 0a9.604 9.604 0 0 1-.294-1.39c-.03-.186-.404-2.623-1.056-7.32-.069-.38-.12-.984-.211-1.79l-.103-.604-.222-1.254-.297-1.725c-.091-.802-.204-1.46-.283-1.923a1.234 1.234 0 0 1 0-.38l-.06-.342-.057-.327a.89.89 0 0 1-.11-.32 3.239 3.239 0 0 1-.048-.616l-.09-.512-.072-.277c-.056-.62-.094-1.14-.147-1.467a12.437 12.437 0 0 1-.329-1.578l-.565-3.268-.249-1.448c-.119-.654-.2-1.314-.24-1.976-.137-.51-.246-.825-.28-1.015a2.902 2.902 0 0 1-.05-.616l-.116-.645c-.03-.483-.136-1.088-.256-1.787-.203-1.52-.192-2.322.037-2.463l.973-.315a6 6 0 0 0 1.365-.478 3.7 3.7 0 0 1 .663-.084c.22-.004.44-.027.656-.068a1.07 1.07 0 0 0 .396-.115c.15-.03.303-.042.457-.034.256 0 .46-.03.614 0l.464-.076c.444-.008.886.045 1.316.156a3.898 3.898 0 0 1 2.44 1.927m-6.396 1.364c.007.366.034.732.083 1.094.056.324.282 1.346.674 3.007.357 1.491.67 2.993.935 4.503.581 3.363.94 5.461 1.132 6.248.093.268.16.547.196.828l.053.33c.086.18.206.301.282.434l.215.058c.472-.278.928-.887 1.327-1.87.383-1.11.65-2.256.796-3.421a10.23 10.23 0 0 0-.038-2.28l-.128-.76c-.08-.468-.075-1.045-.181-1.654-.034-.181-.121-.414-.154-.596-.245-1.11-.45-1.992-.54-2.501-.256-1.497-.709-2.618-1.293-3.336a2.596 2.596 0 0 0-1.22-.794 1.904 1.904 0 0 0-.673-.027 5.61 5.61 0 0 0-.67-.023.377.377 0 0 1-.336.148c-.053 0-.14.077-.2.038a.626.626 0 0 0-.26.574ZM81.987.788c.294.21.51.516.61.866.228.342.403.716.521 1.11.107.244.188.499.245.76.037.225.102.445.196.654.134.588.22 1.186.256 1.79l.204 1.79.041.707c-.041.144-.09.197-.087.243v.06a.175.175 0 0 1 .06.141c-.256.2-.574.3-.896.289h-.253c-.154 0-.611 0-1.327-.065-.573-.251-.883-.422-.89-.563v-.045a18.738 18.738 0 0 1-.252-2.455 6.74 6.74 0 0 0-.314-1.972 2.049 2.049 0 0 0-.78-1.14.903.903 0 0 0-.668-.198h-.203a.348.348 0 0 1-.2.06 2.46 2.46 0 0 0-1.315.886l-.558.985c-.137.365-.218.75-.238 1.14l.023.33c.075.9.279 1.783.606 2.623.228.588.5 1.158.81 1.706.288.506 1.017 1.647 2.188 3.42.61.916 1.229 2.014 1.964 3.257.06.137.173.38.346.688.175.308.337.547.378.688.042.14.287.555.697 1.428.003.16.028.32.076.473.06.186.068.326.128.47.19.199.342.43.448.684.06.233.25.79.559 1.722 0 .045.135.653.403 1.778.213 1.031.361 2.075.445 3.125a14.473 14.473 0 0 1-.316 4.149 6.27 6.27 0 0 1-.476 1.452 2.174 2.174 0 0 1-.697 1.034c-.046.148-.336.403-.822.76a4.03 4.03 0 0 1-1.132.353l-.354.023c-.112.042-.23.065-.35.068a1.745 1.745 0 0 1-.408-.022l-.407.022c-1.885-.125-3.834-.437-4.43-1.11-.595-.672-.98-1.983-1.13-3.921-.05-.896-.094-1.653-.08-2.28-.064-.232-.128-.422-.128-.465.008-.224.027-.449.06-.672a.842.842 0 0 1-.124-.418.884.884 0 0 1 .075-.429c-.053-.05-.06-.14-.068-.285v-.236a.177.177 0 0 0-.056-.14c.041-.141.34-.255.886-.43a.668.668 0 0 0 .252-.065h.306c.272-.001.544.014.814.046.456 0 .754.14.833.33.02.269.02.539 0 .807l.064 1.037c.046.85.144 1.611.23 2.223.377 2.3.962 3.455 1.825 3.42.098 0 1.007-.11 1.26-.17a1.14 1.14 0 0 0 .603-.49c.165-.282.269-.596.305-.92.15-.414.209-.854.174-1.292.031-.364.031-.73 0-1.095a8.74 8.74 0 0 0 0-.946c-.02-.395-.06-.788-.12-1.178l-.077-1.327c-.226-2.12-1.583-5.32-4.06-9.5a7.494 7.494 0 0 1-.453-.825 8.192 8.192 0 0 0-.456-.828l-.448-.784c-.174-.323-.343-.597-.46-.874l-.852-1.52c-.875-1.9-1.466-3.378-1.681-4.507-.091-.612-.167-1.08-.178-1.315a6.337 6.337 0 0 1 .947-3.759c.557-.843 1.487-1.42 2.79-1.733a12.957 12.957 0 0 1 2.465-.38 4.289 4.289 0 0 1 1.946.213c.279.13.534.307.754.524m9.62 3.44c.002.254.02.508.057.76v3.644c.045.347.068.696.068 1.046l.11 7.87c0 .327 0 .851.067 1.467l.019 1.372c-.041.805-.083 1.425-.075 1.755 0 .24.031.478.094.707l.034 2.232c.072 5.446.117 8.664.076 9.614v.331a.963.963 0 0 0-.045.33c0 .191-.253.29-.808.297h-.509a7.343 7.343 0 0 1-1.217-.076c-.611-.228-.92-.414-.92-.605l-.064-17.063c0-.9-.019-1.608.022-2.037l-.026-1.99v-3.695c-.01-.3.002-.602.034-.9v-.852l-.099-3.648c.031-1.422.02-2.322 0-2.699v-.9c.002-.194.034-.387.095-.57-.05-.046-.101-.095-.101-.141 0-.046 0-.05-.053-.05s.154-.045.456-.048h.354a4 4 0 0 1 .86-.062c.238-.014.477 0 .712.039.509 0 .754.079.754.223.06.567.129 1.801.154 3.645m16.597 5.089-.041 1.186v.045a.27.27 0 0 1-.053.186.117.117 0 0 1-.038.067.113.113 0 0 1-.072.028c-.048.043-.101.043-.252.039-.151-.005-.203.037-.309.083-.302-.061-.754-.22-1.354-.38-.599-.16-1.055-.274-1.055-.38l-.019-.856c.026-.71 0-.38-.057-2.511a4.747 4.747 0 0 0-.214-1.193 4.289 4.289 0 0 0-.321-.962 1.357 1.357 0 0 0-.732-.737 6.434 6.434 0 0 0-1.507-.293h-.253c-1.271-.046-1.961.924-2.338 1.433a5.333 5.333 0 0 0-.475 1.923v.235l-.019.566-.034.617v.285c-.094 1.185-.207 3.04-.43 7.6.023.905 0 1.991-.063 3.367-.065 1.376-.084 2.28-.053 2.744-.103 4.26.075 6.5.437 7.65.05.201.129.395.234.574.24.552.564 1.064.958 1.52.251.307.573.546.938.7.182.047.37.07.558.068h.301c.755.026 1.275-.1 1.539-.422 0-.046.057-.136.264-.323l.32-.38c.059-.133.13-.26.211-.38.124-.186.218-.39.279-.604.07-.23.128-.466.174-.704a7.628 7.628 0 0 0 .377-1.785c.01-.333.004-.667-.019-1l-.064-.95a2.165 2.165 0 0 0-.037-.476c0-.19 0-.333-.035-.38-.303.04-.607.061-.912.065l-1.275.095-1.168.1c-.151 0-.253 0-.306-.058a.164.164 0 0 1-.15.038c0-.042-.05-.046-.098-.095a4.898 4.898 0 0 1-.109-1.19v-.565a1.858 1.858 0 0 1-.031-.521v-.05c.01-.167.051-.33.121-.483.053-.094.109-.14.158-.136a26.87 26.87 0 0 0 3.198-.027h.35l1.625.06c.655.073 1.063.089 1.21.096h.305c.103.05.14.334.17.954.101.34.139.695.113 1.05v.424l-.041.677-.038.95-.019.566c-.162 4.401-1.327 7.107-3.438 8.122a4.09 4.09 0 0 1-1.181.38c-.374.052-.753.07-1.131.053a2.912 2.912 0 0 0-.712.022h-.204a.18.18 0 0 1-.154.042 4.653 4.653 0 0 1-.656-.113 2.917 2.917 0 0 0-.603-.069c-.439-.138-.87-.3-1.29-.486-1.342-.712-2.257-2.073-2.745-4.082a7.178 7.178 0 0 1-.248-1.478 4.496 4.496 0 0 1-.113-1.14l-.041-.327a5.917 5.917 0 0 0 0-.905 4.832 4.832 0 0 0 0-.9V24.76l.105-2.885c.023-.619.056-1.52.05-2.75a6.47 6.47 0 0 0-.02-.902l.03-.85v-.856l.019-.566v-.236a5.14 5.14 0 0 0-.023-.76 3.335 3.335 0 0 0-.019-.76l.045-1.421-.03-.475.042-1.182.132-2.181.056-1.703c.065-1.604.306-2.782.686-3.573l.284-.702a4.567 4.567 0 0 1 1.885-1.878 5.911 5.911 0 0 1 2.767-.797c.473-.029.948-.029 1.421 0a7.566 7.566 0 0 1 2.21.653 6.327 6.327 0 0 1 1.508 1.38c.826 1.029 1.283 2.468 1.368 4.318.06 1.094.08 1.991.105 2.66m10.885-6.606c.003.404.041.807.113 1.204.023.24.06.76.124 1.543.043.287.06.577.05.866.053.434.109.826.12 1.14.102 1.301.207 2.6.4 3.962.14 1.017.226 1.553.215 1.648-.011.096.056.38.082.627.057.19.085.387.083.585.103.441.181.639.174.685.128.22.221.457.275.707l.128.68.227-.639a1.33 1.33 0 0 0 .207-.502V15.1c1.251-2.858 2.368-4.963 3.574-7.821.061-.091.219-.552.516-1.376.555-1.22 1.026-2.162 1.407-2.835.125-.235.272-.458.437-.666.053-.037.072-.178.136-.315.075-.121.157-.237.245-.35a.376.376 0 0 1 .264-.064c.165.045.332.081.502.107.151.017.304.017.456 0l.301.037a1.6 1.6 0 0 1 .644.175c.046.053.144.065.242.122l.2.023c.045.057.147.068.193.122.045.053.089.06.086.102-.004.042.045.057.042.103a.977.977 0 0 1 0 .474l-.034.285c-.005.17-.038.337-.099.495.039.347.033.699-.018 1.044-.027.19-.027.62-.046 1.236a11.56 11.56 0 0 0-.128 1.52l-.245 2.072c-.071 1.041-.158 1.792-.222 2.36l-.193 1.645c.02.333.02.666 0 .999a1.25 1.25 0 0 1-.094.38l-.045.38-.068.564-.132 1.14-.536 4.56a3.91 3.91 0 0 1-.131.703l-.087.76a12.133 12.133 0 0 0-.136 1.557 3.659 3.659 0 0 1-.124.604l-.079.712-.154 1.314c-.027.221-.07.44-.129.654l-.075.612c-.061.512-.144 1.22-.302 2.155a40.226 40.226 0 0 0-.305 2.158c-.091.323-.234 1.118-.426 2.338a11.57 11.57 0 0 1-.464 2.185c-.023.186-.335.243-.943.17-.219.02-.44.02-.659 0l-.404-.049-.354-.045c-.343-.087-.543-.16-.585-.259l.019-.14.034-.286c.019-.136.027-.235 0-.284l.147-1.227c.051-.566.134-1.128.249-1.685l.091-.76c.066-.259.114-.523.143-.79l.033-.285c.034-.282.136-.76.272-1.444l.106-.897c.022-.332.077-.66.165-.981.106-.478.18-.963.223-1.451.128-.658.184-1.14.219-1.456l.082-.707a4.87 4.87 0 0 0 .148-.794l.033-.281.064-.563c.064-.213.107-.432.129-.653.012-.509.054-1.016.124-1.52.114-.527.195-1.06.242-1.596l.403-3.452c.04-.313.06-.63.06-.945l.106-.893a18.6 18.6 0 0 0 .113-1.418c.034-.715.09-1.182.113-1.369l-.234.26-.565 1.31c-.079.236-.14.32-.143.38a7.723 7.723 0 0 0-.732 1.441c-.346.76-.618 1.352-.773 1.767-.754 1.581-1.221 2.618-1.534 3.105a14.46 14.46 0 0 0-1.086 2.687 13.66 13.66 0 0 1-.969 2.371c-.068.133-.279.202-.633.16a.626.626 0 0 1-.437-.194 1.873 1.873 0 0 1-.325-.703c-.037-.103-.064-.296-.14-.547a2.3 2.3 0 0 1-.192-.548c-.034-.145-.12-.25-.106-.38a3.081 3.081 0 0 1-.139-.543l-.045-.479c0-.05-.075-.251-.132-.639a3.2 3.2 0 0 1-.196-.927l-.309-1.71-.362-2.132-.539-3.645-.437-2.34-.226 1.881-.087.76-.049.426c-.1.462-.172.93-.215 1.401a22.368 22.368 0 0 0-.166 1.844l-.223 1.877c-.041.33-.098.803-.124 1.467l-.196 1.528-.162 1.41c-.094.465-.167.934-.218 1.406-.163 1.36-.449 3.379-.755 6.08a144.748 144.748 0 0 0-.78 5.773c-.027.24-.295.346-.849.282h-.818a1.264 1.264 0 0 1-.497-.107c-.535-.204-.755-.38-.803-.525l.026-.239a.617.617 0 0 1 0-.33l.049-.38.03-.282.079-.658c.034-.33.132-1.14.223-2.31l.339-2.915c.035-.284.052-.57.049-.855l.158-1.315c.064-.44.097-.882.098-1.326.15-.584.255-1.178.313-1.778.024-.615.082-1.228.17-1.836.113-.559.215-1.41.347-2.54l.143-1.222c.272-1.874.472-3.14.543-3.751.147-.79.283-1.969.517-3.515.234-1.547.437-2.858.625-4.03.189-1.169.415-2.188.63-3.165a1.51 1.51 0 0 1 .094-.38c.069-.186.139-.319.144-.38.003-.06.067-.14.079-.232l.022-.19v-.137l.05-.38.03-.33c.022-.136.377-.14 1.085-.061.356-.011.712 0 1.067.034a2.5 2.5 0 0 1 .701.133c.634.22.969.38.955.544.009.337.038.673.086 1.007Zm21.535 33.968c0-.24.098-.943.181-2.045.083-1.102.166-1.756.237-2.562.072-.805.061-1.25-.067-1.372l-.098-.023a2.404 2.404 0 0 0-.46-.049l-.543-.121-.249-.05-.592-.133a4.549 4.549 0 0 0-.735-.205l-.396-.091-.448-.1a2.662 2.662 0 0 0-.536-.159c-.148-.04-.3-.057-.453-.053l-.376-.088c-.641-.136-1.06-.133-1.237-.022-.102.22-.468 1.201-1.063 3.014-.694 1.786-.773 1.9-.894 2.23-.12.331-.207.726-.377 1.224s-.418.977-.637 1.52l-.475 1.015a2.991 2.991 0 0 1-.712-.061l-.249-.053-.151-.034-.595-.126c-.985-.22-1.46-.418-1.46-.661v-.092c.034-.14.215-.486.441-1.07.223-.354.394-.738.506-1.141a30.32 30.32 0 0 0 1.115-3.018c.657-1.846 1.003-2.979 1.131-3.336.128-.357.261-.722.468-1.209.207-.486.351-.892.445-1.113l.418-1.22.607-1.611a9.79 9.79 0 0 0 .547-1.578c.03-.14.125-.38.256-.718.083-.262.19-.517.317-.76l.516-1.437c1.041-2.926 1.584-4.454 1.595-4.56l.755-1.733c.22-.618.472-1.224.753-1.816.03-.141.245-.673.675-1.695.298-.665.555-1.383.803-2.056l.705-1.832c.115-.303.247-.598.396-.886.061-.034.109-.022.211 0 .102.02.199.057.287.111l.377.083.15.034c.231-.098.785-.026 1.674.17 1.584.343 2.696.735 3.393 1.175-.053 2.661-.15 4.329-.229 4.941l-.231 1.547-.697 6.635c-.377 2.923-.581 5.108-.724 6.53l-.26 3.382c-.023.334-.071.81-.094 1.382l-.117 1.19c-.094 1.19-.136 1.859-.177 2.045l-.037.187a7.792 7.792 0 0 0-.159 1.71c-.072.805-.125 1.28-.113 1.478a6.064 6.064 0 0 0-.148.939l-.022.817c-.098.702-.12 1.041-.128 1.087l-.053.232a3.87 3.87 0 0 0-.06.76 2.862 2.862 0 0 1-.871-.046 25.651 25.651 0 0 1-1.554-.24c-.546-.12-.829-.235-.802-.38v-.046c0-.68.211-2.66.309-3.86m-.864-10.151.641.144c.214.06.435.09.657.092l.705.105.097-.95c.05-.953.159-1.71.238-2.322.05-.215.08-.435.091-.657.017-.269.057-.536.12-.798l.347-3.075c.14-1.375.29-2.553.377-3.453a69.8 69.8 0 0 0 .237-3.295 31.72 31.72 0 0 0 .144-3.554c0-.045-.03-.102-.128-.126a.695.695 0 0 0-.261 0l-.245-.052a.193.193 0 0 1-.139-.08l-.713 1.638c-.558 1.379-.897 2.226-1.082 2.622l-.698 1.786c-.135.407-.376 1.084-.636 1.999a13.5 13.5 0 0 1-.517 1.68l-.841 2.478a28.125 28.125 0 0 0-1.647 4.78l-.038.186c.445.218.913.384 1.395.495.171-.008.342.011.506.06l.591.133.799.164Zm20.404-16.475 4.456 1.387c.238.077.182.605-.131 1.643-.238.76-.46 1.14-.604 1.105-1.312-.41-2.665-.828-4.034-1.209h-.049c-.181.59-.486 1.585-.965 2.976l-.788 2.577c-2.62 8.554-3.295 9.535-6.703 20.67l-.098.319-.181.586a1.205 1.205 0 0 1-.185.437c-.062.213-.143.42-.241.619a3.15 3.15 0 0 1-.275.707c-.046.33-.053.532-.079.619a.52.52 0 0 1-.121.217l-.057.175a1.27 1.27 0 0 1-.173.38l-.109.38c-.08.27-.702.227-1.916-.152-.822-.251-1.232-.478-1.176-.661.098-.32.223-.722.423-1.209.037-.133.173-.38.331-.737.047-.152.077-.31.09-.467l.125-.407.056-.18.136-.455.265-.863c.123-.222.214-.459.271-.706a3.98 3.98 0 0 0 .241-.616l1.304-4.28c.626-2.037 1.109-3.618 1.535-4.826.148-.55.331-1.089.546-1.616l.095-.315c.083-.273.271-.706.528-1.371.092-.288.164-.58.218-.879l.26-.858 1.154-3.755.667-2.022.223-.722c.15-.501.131-.262.279-.563a7.27 7.27 0 0 0 .211-.877c.113-.312.195-.633.245-.961l.46-1.494.177-.59.019-.044-4.973-1.449c-.226-.118-.192-.76.144-1.839.218-.722.426-1.056.667-.981h.049c.113.08.241.138.377.168.13.04.264.066.4.076l.437.133.241.076c.038.06.181.106.377.167a3 3 0 0 0 .547.118l.532.167.24.072 4.532 1.33Zm10.315 7.038-.279.707c-.062.26-.147.514-.252.76l-.23.574-.452 1.14-.378.924a9.082 9.082 0 0 1-.339.985l-2.922 7.28-.531 1.396c-.181.592-.378 1.03-.46 1.291-.347.73-.623 1.28-.754 1.589a2.71 2.71 0 0 0-.219.68l-.829 2.045c-2.199 5.492-3.465 8.654-3.865 9.5a.746.746 0 0 1-.17.29l-.124.307c-.049.126-.377.1-.965-.042-.034-.06-.173-.12-.407-.212-.894-.38-1.471-.703-1.399-.878l6.597-16.85.159-.381c.23-.57.423-1.052.645-1.474l.753-1.844.476-1.185.245-.616.988-2.463c.14-.246.266-.5.377-.76l1.131-2.853c.429-.95.693-1.612.836-1.962l.336-.837a.478.478 0 0 0 .038-.239c0-.102.057-.125.121-.151a.205.205 0 0 1-.021-.127.206.206 0 0 1 .062-.112l.034-.092c0-.042.159 0 .438.13l.331.136c.234.046.46.12.675.224l.283.115.139.057c.577.334.822.54.792.623a27.563 27.563 0 0 1-.844 2.367m-3.089 18.147c.287-.654.506-1.178.66-1.47a16.96 16.96 0 0 1 .8-1.616c.286-.54.754-1.52 1.467-3.017.712-1.497 1.236-2.661 1.655-3.466l.264-.498a5.28 5.28 0 0 1 .44-.734l.377-.706.197-.38a21.247 21.247 0 0 1 3.672-5.01c1.172-1.032 2.353-1.425 3.468-1.254.268-.002.535.048.785.148.176.081.364.13.557.141l.4.217c.322.138.602.362.811.646a5.114 5.114 0 0 1 1.942 3.724 8.173 8.173 0 0 1-.928 4.595l-.528 1.11a.19.19 0 0 0-.03.075.198.198 0 0 0 .007.08l-.09.164c-.219.422-.732.415-1.58-.042l-.222-.121-.272-.146c-.494-.26-.754-.443-.811-.645a.311.311 0 0 0 .045-.19.266.266 0 0 1 .046-.19l.728-1.383c.452-.91.667-1.919.626-2.934-.053-.996-.378-1.66-.973-1.972a1.5 1.5 0 0 0-1.098-.21 2.35 2.35 0 0 0-1.108.585c-.296.28-.569.583-.818.905-.2.27-.512.639-.84 1.16a.783.783 0 0 0-.178.227l-.177.335-.155.293-.176.334-.197.38-.55 1.04-1.301 2.471-.328.628a9.285 9.285 0 0 0-.441.945 8.896 8.896 0 0 1-.419.905l-.923 1.866c-.196.483-.637 1.323-1.233 2.558-.596 1.235-1.078 2.159-1.365 2.812-.218.418-.482 1.022-.814 1.763l-.396.76c-.11.213-.196.486-.355.886a7.3 7.3 0 0 1-.376.821l-.181.33c-.042.194-.174.449-.306.806a4.662 4.662 0 0 0-.26.825c-.022.144-.109.422-.218.851a5.737 5.737 0 0 0-.17.87 4.04 4.04 0 0 0 .045.67.993.993 0 0 0 .377.687 3.2 3.2 0 0 0 .874.63 1.256 1.256 0 0 0 1.131 0c.389-.159.726-.422.977-.759.293-.253.533-.561.705-.908.143-.17.263-.36.354-.563l.174-.338.158-.292a2.53 2.53 0 0 0 .378-.605l.29-.54c.251-.548.577-1.06.969-1.52.112-.106.335-.09.753.084a.645.645 0 0 0 .25.076c.117.024.23.067.335.126.182.093.354.204.512.333.172.119.337.245.495.381l.199.16-1.206 2.303a14.214 14.214 0 0 1-2.299 3.382c-.11.102-.468.448-1.113 1.015-1.176 1.037-2.153 1.371-2.956 1.048a2.508 2.508 0 0 1-1.078-.361 11.308 11.308 0 0 0-1.225-.715 4.97 4.97 0 0 1-1.923-3.115 8.765 8.765 0 0 1 .181-3.717 27.361 27.361 0 0 1 1.78-4.143c.376-.76.705-1.337.859-1.741l.219-.417c.154-.293.354-.76.637-1.43M33.843 40.916c-.092-.38-.167-.687-.209-.923 0-.046-.068-.323-.215-.817-.147-.494-.267-.95-.376-1.255-.083-.215-.208-.664-.419-1.337l-.196-.52a.328.328 0 0 1-.023-.195l-.105-.262a1.645 1.645 0 0 0-.282-.437 40.41 40.41 0 0 0-1.565-4.502l-.343-.868-.378-.912-.893-2.257-.467-1.318-.174-.437-.17-.434-.154-.38a.992.992 0 0 1-.09-.38l-.14-.346a.912.912 0 0 0-.181-.326 1.373 1.373 0 0 1-.113-.411l-.17-.434a2.78 2.78 0 0 0-.377-.657 23.908 23.908 0 0 0-2.752-5.18 9.762 9.762 0 0 0-2.801-2.778l1.131-.414c.049-.034.094-.072.142-.103.144-.08.272-.156.404-.213a1.443 1.443 0 0 0 .498-1.592 1.411 1.411 0 0 0-.51-.637 1.395 1.395 0 0 0-.776-.245 8.394 8.394 0 0 0-1.259.487c-.505.232-1.018.38-1.508.547l-.102.05-2.503 1.113-.11.042h-.03c-.138.04-.267.109-.377.202a4.715 4.715 0 0 0-1.507 1.66 6.047 6.047 0 0 0-.755 2.356c0 .657-.037 1.122-.025 1.421.025.433.087.862.184 1.285.095.507.26 1.195.493 2.064l.374.878c.105.406.226.706.264.942.052.133.169.437.35 1.018l.377 1.403c.09.217.26.654.509 1.407.25.752.418 1.34.546 1.792l.97 2.73c.088.215.159.438.21.665.043.2.102.395.178.585l.479 1.216.754 1.46.21.672.547 1.387.257.654c.378.95.652 1.649.87 2.064.088.216.272.543.525 1.044.253.502.535.946.833 1.426.234.46.4.76.434.831 1.17 1.593 2.349 2.532 3.616 2.87h.64a2.11 2.11 0 0 1 .55.03c.418.009.834-.039 1.237-.144l1.392-.57.23-.092c.361-.15.7-.353 1.002-.604a7.85 7.85 0 0 0 1.03-1.067c.292-.375.508-.804.633-1.262a5.6 5.6 0 0 0 .204-1.388l.037-.315a.928.928 0 0 0-.056-.28m-3.804 1.668a1.653 1.653 0 0 1-.755.657c-.359.158-.74.26-1.13.3a1.593 1.593 0 0 1-1.075-.27 4.064 4.064 0 0 1-.886-.76c-.313-.38-.607-.707-.852-1.064-.43-.68-1.311-2.637-2.601-5.894L21.728 33l-.471-1.314-.256-.657-.713-2.064a60.256 60.256 0 0 0-.565-1.836c-.245-.76-.487-1.36-.622-1.71-.231-.71-.408-1.296-.528-1.6-.265-.794-.404-1.296-.49-1.52.03-.061 0-.149-.026-.338a2.155 2.155 0 0 0-.125-.456l-.087-.194a.655.655 0 0 1-.147-.248c-.075-.322-.14-.76-.245-1.14.027-.056-.113-.554-.287-1.394a4.212 4.212 0 0 1 .2-1.54c0-.25.22-.54.66-.915.428-.119.882-.11 1.305.026.2.011.389.098.527.244.182.097.354.213.513.345l.517.498c1.256 1.255 2.32 2.988 3.19 5.203l.467 1.175c.46 1.169 1.236 3.12 2.288 5.916a317.162 317.162 0 0 0 2.508 6.487l.123.3c.069.175.22.567.43 1.236.17.403.296.824.378 1.254.153.538.245 1.091.275 1.65a3.504 3.504 0 0 1-.509 2.185ZM193.307 24v-.403a2.415 2.415 0 0 0-.113-.76.662.662 0 0 0-.377-.38l-.404-.195a.872.872 0 0 0 .378-.258c.16-.19.271-.418.324-.661a2.45 2.45 0 0 0 .053-.225.317.317 0 0 1 0-.087.785.785 0 0 0 .026-.16v-.384a.623.623 0 0 0 0-.137 1.813 1.813 0 0 0-.14-.734.846.846 0 0 0-.433-.38 1.35 1.35 0 0 0-.261-.083h-.094l-.12-.026h-.095a.199.199 0 0 1-.082 0 .971.971 0 0 1-.136-.024.978.978 0 0 0-.136-.022c-.095.01-.191.01-.287 0h-.203c-.053 0-.083.118-.087.33a1.75 1.75 0 0 1 0 .251v.095a.318.318 0 0 0 0 .087c0 .027 0 .073.027.149a2.14 2.14 0 0 0 0 .277v.213l.004.444a1.456 1.456 0 0 0 0 .23v.317a.323.323 0 0 0 0 .088.087.087 0 0 0 0 .046v.08a.095.095 0 0 0 0 .053v.794c-.006.085-.006.17 0 .256v1.041a.929.929 0 0 0 0 .197c0 .031.128.058.354.084h.184c.125 0 .186-.023.186-.042v-.06a.074.074 0 0 1 0-.042v-.262a.234.234 0 0 1 0-.092v-.448c0-.05 0-.16-.019-.357v-.168a1.006 1.006 0 0 1 0-.155c0-.034 0-.054.03-.054.145.042.284.102.415.18.109.065.2.158.263.27.062.194.102.395.121.6.006.1.006.202 0 .303v.156a2.16 2.16 0 0 0 0 .255s.053.038.154.053h.103l.195.023h.023c.052.008.107 0 .155-.023a.244.244 0 0 1-.027-.106.455.455 0 0 0 0-.156m-1.006-2.3a.593.593 0 0 1-.325.195h-.037c0-.024-.034-.047-.045-.073v-.05a.411.411 0 0 0 0-.12c0-.115-.023-.415-.034-.894 0-.198-.024-.415-.049-.657a6.411 6.411 0 0 1-.042-.438.771.771 0 0 1 0-.152.09.09 0 0 1 .026-.043.089.089 0 0 1 .046-.02h.041a.097.097 0 0 0 .071 0 1 1 0 0 1 .136.033 1.1 1.1 0 0 1 .136.035.655.655 0 0 1 .219.163.9.9 0 0 1 .158.517c0 .068 0 .197.03.36v.43a1.072 1.072 0 0 1-.064.312 1.664 1.664 0 0 1-.267.403Z" fill="#fff"></path>
  <path d="M192.168 17.508c-.825 0-1.632.247-2.316.709a4.195 4.195 0 0 0-1.536 1.886 4.24 4.24 0 0 0-.237 2.429c.16.814.557 1.562 1.141 2.152a4.142 4.142 0 0 0 4.544.912 4.182 4.182 0 0 0 1.872-1.549 4.23 4.23 0 0 0-.519-5.307 4.153 4.153 0 0 0-2.949-1.23v-.002Zm-3.084 2.623a.371.371 0 0 1-.094.198c.03-.065.061-.134.098-.202m3.085 5.073a3.376 3.376 0 0 1-1.577-.38c-.079-.087-.15-.178-.23-.27a3.035 3.035 0 0 0-.961-.759 3.48 3.48 0 0 1-.516-3.241l.527-.905c-.06.056-.117.11-.17.17a4.02 4.02 0 0 1 .295-.38l-.125.221.098-.102a1.04 1.04 0 0 0 .279-.381 3.444 3.444 0 0 1 4.494-.19c.061.116.132.226.215.327a.555.555 0 0 0 .295.168 3.517 3.517 0 0 1 .502 3.722 3.499 3.499 0 0 1-1.278 1.474 3.443 3.443 0 0 1-1.864.55M46.006 56v-8.4h1.944V56h-1.944Zm3.937 0v-8.4h1.608l4.956 6.048h-.78V47.6h1.92V56h-1.596l-4.968-6.048h.78V56h-1.92Zm11.432 0v-6.816h-2.688V47.6h7.32v1.584h-2.688V56h-1.944Zm7.466-5.016h4.044v1.512H68.84v-1.512Zm.144 3.456h4.572V56h-6.504v-8.4H73.4v1.56h-4.416v5.28ZM75.103 56v-8.4h3.636c.752 0 1.4.124 1.944.372.544.24.964.588 1.26 1.044.296.456.444 1 .444 1.632 0 .624-.148 1.164-.444 1.62-.296.448-.716.792-1.26 1.032s-1.192.36-1.944.36h-2.556l.864-.852V56h-1.944Zm5.34 0-2.1-3.048h2.076L82.543 56h-2.1Zm-3.396-2.976-.864-.912h2.448c.6 0 1.048-.128 1.344-.384.296-.264.444-.624.444-1.08 0-.464-.148-.824-.444-1.08-.296-.256-.744-.384-1.344-.384h-2.448l.864-.924v4.764ZM83.927 56v-8.4h1.609l4.956 6.048h-.78V47.6h1.92V56h-1.596l-4.968-6.048h.78V56h-1.92Zm8.588 0 3.744-8.4h1.92l3.756 8.4h-2.04l-3.072-7.416h.768L94.507 56h-1.992Zm1.872-1.8.516-1.476h4.32l.528 1.476h-5.364Zm9.738 1.8v-6.816h-2.688V47.6h7.32v1.584h-2.688V56h-1.944Zm5.678 0v-8.4h1.944V56h-1.944Zm8.017.144c-.664 0-1.28-.108-1.848-.324a4.439 4.439 0 0 1-1.464-.912 4.282 4.282 0 0 1-.96-1.38 4.379 4.379 0 0 1-.336-1.728c0-.624.112-1.2.336-1.728.232-.528.556-.988.972-1.38a4.439 4.439 0 0 1 1.464-.912 5.026 5.026 0 0 1 1.824-.324c.664 0 1.272.108 1.824.324.56.216 1.044.52 1.452.912a4.194 4.194 0 0 1 1.32 3.108c0 .624-.116 1.204-.348 1.74a4.195 4.195 0 0 1-.972 1.38 4.405 4.405 0 0 1-1.452.9 4.93 4.93 0 0 1-1.812.324Zm-.012-1.656c.376 0 .72-.064 1.032-.192a2.448 2.448 0 0 0 1.392-1.404c.136-.328.204-.692.204-1.092 0-.4-.068-.764-.204-1.092a2.448 2.448 0 0 0-.552-.852 2.351 2.351 0 0 0-.828-.552 2.786 2.786 0 0 0-1.044-.192c-.376 0-.724.064-1.044.192a2.504 2.504 0 0 0-.828.552c-.24.24-.428.524-.564.852a2.98 2.98 0 0 0-.192 1.092c0 .392.064.756.192 1.092.136.328.32.612.552.852.24.24.52.424.84.552.32.128.668.192 1.044.192ZM123.865 56v-8.4h1.608l4.956 6.048h-.78V47.6h1.92V56h-1.596l-4.968-6.048h.78V56h-1.92Zm8.588 0 3.744-8.4h1.92l3.756 8.4h-2.04l-3.072-7.416h.768L134.445 56h-1.992Zm1.872-1.8.516-1.476h4.32l.528 1.476h-5.364Zm8.419 1.8v-8.4h1.944v6.816h4.212V56h-6.156Z" fill="#fff"></path>
</svg>
