<?xml version="1.0" encoding="UTF-8"?>
<svg version="1.1" xmlns="http://www.w3.org/2000/svg" width="371" height="48">
<path d="M0 0 C122.43 0 244.86 0 371 0 C371 6.93 371 13.86 371 21 C362.89419027 24.50603614 354.85136591 27.4705965 346.375 29.9375 C344.63053589 30.44845215 344.63053589 30.44845215 342.85083008 30.96972656 C330.67566107 34.47391574 318.3967728 37.39714035 306 40 C305.10104004 40.19045898 304.20208008 40.38091797 303.27587891 40.57714844 C259.38473318 49.6933188 216.4260601 49.01552786 172 45 C171.11324585 44.91985657 170.2264917 44.83971313 169.31286621 44.75714111 C121.33123222 40.36722964 73.50049227 33.65586737 25.9375 26 C24.72111847 25.80450562 23.50473694 25.60901123 22.25149536 25.40759277 C18.8633833 24.86036904 15.47635485 24.30703758 12.08984375 23.75 C11.08807098 23.58687317 10.08629822 23.42374634 9.0541687 23.25567627 C7.69305466 23.02856964 7.69305466 23.02856964 6.30444336 22.796875 C5.51613632 22.66635742 4.72782928 22.53583984 3.91563416 22.40136719 C2 22 2 22 0 21 C0 14.07 0 7.14 0 0 Z " fill="#8B663E" transform="translate(0,0)"/>
</svg>
