<svg width="169" height="31" viewBox="0 0 169 31" fill="none" xmlns="http://www.w3.org/2000/svg">
<path d="M19.6487 7.42729C19.6487 5.01801 18.0033 3.49772 15.8351 3.49772C15.3289 3.49772 14.0406 3.51429 13.5916 3.564L12.0878 12.8855C12.3621 12.9103 12.8351 12.8855 13.0853 12.8855C16.657 12.8855 19.6487 10.559 19.6487 7.42729ZM46.3165 1.67005L43.3173 19.9724C43.1931 20.7198 43.1848 21.0188 44.6056 21.0188L44.2477 23.3618H41.7805C43.1351 23.9857 44.4557 24.9575 44.4557 26.2367C44.4557 28.6874 42.0464 30.6394 35.7324 30.6394C24.0431 30.6394 16.3256 24.675 13.6744 15.7098H11.6056L10.7084 21.3519C10.5418 22.4314 10.5584 22.7811 12.4781 22.9053L13.7995 22.9965L13.2593 25.7546C11.348 25.6377 9.23779 25.5375 7.13588 25.5466C5.22536 25.5466 3.21458 25.646 1.32063 25.7546L1.76968 22.9965C2.26844 22.9716 2.60894 22.9716 2.93289 22.9377C3.2328 22.9128 3.52858 22.8515 3.81359 22.7554C4.34548 22.5889 4.77714 22.2483 4.89313 21.559L7.74316 4.37013C6.93113 4.51305 6.13521 4.73589 5.36702 5.03542C4.73571 5.28397 4.04557 5.85729 4.04557 6.32291C4.04557 6.52257 4.08782 6.67171 4.17067 6.80509C4.27837 6.97079 4.41176 7.12075 4.41176 7.34445C4.41176 7.50186 4.34549 7.59382 4.26264 7.70235C3.84756 8.20111 2.91632 8.59879 2.04391 8.59879C1.77554 8.5989 1.50978 8.54614 1.2618 8.44351C1.01383 8.34089 0.788501 8.19041 0.598696 8.00068C0.40889 7.81095 0.258323 7.58569 0.155597 7.33776C0.0528704 7.08983 -2.20658e-08 6.82408 0 6.55571V6.53085C0 3.31544 4.02155 2.02713 6.59653 1.52091C9.49157 0.99149 12.4266 0.710709 15.3695 0.681641C21.3099 0.681641 25.6214 2.53417 25.6214 7.22017C25.6214 11.0752 22.6976 13.5673 19.565 14.6303C21.9495 22.0669 27.773 27.6494 35.2502 27.6494C38.092 27.6494 39.0887 26.4364 39.0887 25.2483C39.1041 24.764 38.9265 24.2933 38.5949 23.9398C38.2634 23.5864 37.805 23.3791 37.3206 23.3635L37.2361 23.3627H36.0564L36.5054 21.0197C37.3364 21.0197 38.2502 20.9451 38.3911 20.0901L40.5261 6.88794C40.5592 6.65596 40.4681 6.55654 40.227 6.55654H38.2411L38.6322 4.46293L46.0762 1.43061L46.3173 1.67999L46.3165 1.67005ZM153.904 21.018L153.456 23.361H145.447L145.838 21.018C147.067 21.018 147.242 20.9103 147.4 19.8556L148.272 14.0901C148.423 13.1017 147.824 12.7686 147.251 12.7686C146.088 12.7686 144.884 13.9816 144.675 15.3776L143.953 20.0545C143.845 20.7198 143.953 21.018 145.332 21.018L144.967 23.361H136.842L137.257 21.018C138.727 21.018 138.976 20.8026 139.118 19.9053L140.081 13.965C140.148 13.5491 140.081 13.4919 139.75 13.4919H137.979L138.345 11.448L145.597 8.33202L145.814 8.53997L145.482 10.3676C146.811 9.18786 148.282 8.35688 149.952 8.35688C152.037 8.35688 153.433 10.3171 153.433 12.4116C153.433 12.902 153.391 13.2997 153.283 13.9981L152.32 19.8473C152.153 20.8275 152.328 21.0097 153.915 21.0097L153.904 21.018ZM124.544 9.0553L123.165 11.9882C122.639 11.7757 122.078 11.6631 121.511 11.656H119.867L118.754 18.4687C118.554 19.6908 118.786 19.9062 119.418 19.9062C120.099 19.9062 120.798 19.5566 122.052 18.4107L123.133 20.5367C121.645 22.1149 119.751 23.7769 117.342 23.7769C114.783 23.7769 113.653 22.3146 113.653 19.9965C113.653 19.506 113.737 18.8407 113.804 18.3768L114.883 11.6551L112.998 11.6883L113.447 9.11329L115.241 9.13815L115.665 6.41321L120.617 4.40243L120.949 4.73466L120.251 9.07932L124.546 9.04619V9.0553H124.544ZM114.674 1.70318C114.04 3.90194 113.529 6.13469 113.145 8.39085H110.263C110.529 7.43558 110.611 6.8374 110.62 6.31379C110.645 5.0669 109.225 4.27816 107.115 4.27816C104.955 4.27816 103.51 5.38338 103.484 6.77029C103.46 8.08346 103.958 8.63194 105.62 9.80261L108.494 11.8382C111.169 13.7322 112.78 15.5027 112.73 18.559C112.64 23.6353 108.336 26.2028 102.828 26.2028C101.54 26.2028 100.468 25.9957 99.5874 25.7877C98.8401 25.6046 98.1177 25.3718 97.3364 25.3718C96.7493 25.3847 96.174 25.5384 95.6587 25.82L95.2105 25.5714C94.8465 23.1095 94.403 20.66 93.8807 18.2268L96.8882 17.5043C97.6777 21.226 99.4052 22.9377 103.153 22.9377C105.612 22.9377 106.934 21.7421 106.967 19.8225C107 17.9782 106.045 17.2144 104.299 16.0677C103.53 15.5805 102.769 15.0819 102.015 14.5723C101.286 14.0981 100.605 13.5555 99.9793 12.9517C99.3226 12.2815 98.8128 11.4817 98.4824 10.6034C98.152 9.7251 98.0083 8.78758 98.0605 7.85066C98.1268 3.86308 101.699 1.0379 106.543 1.0379C108.569 1.0379 110.149 1.54494 111.976 1.64436C112.582 1.66922 113.605 1.53583 114.253 1.37013L114.669 1.70236L114.674 1.70318ZM62.8409 4.12904C62.8409 6.01471 60.797 7.66756 58.6703 7.66756C57.5899 7.66756 56.3356 7.21106 56.3356 5.69076C56.3356 3.43061 58.6288 1.91031 60.5311 1.91031C61.7863 1.91114 62.8409 2.75042 62.8409 4.12904ZM62.3596 8.5408L60.5319 19.6394C60.3248 20.8863 60.2991 21.018 62.0936 21.018L61.7283 23.361H53.3621L53.7192 21.018C55.0986 21.018 55.4971 20.6866 55.6139 19.9385L56.5443 13.8739C56.594 13.5251 56.6023 13.4919 56.2453 13.4919H54.3264L54.6844 11.448L62.1533 8.33202L62.3596 8.5408ZM54.9238 1.57891L51.9826 19.5483C51.7664 20.8863 51.908 21.018 53.2452 21.018L52.8799 23.3527H44.7216L45.087 21.018C46.5162 21.018 46.8732 20.7446 47.0315 19.7305L49.0754 7.03624C49.1417 6.62116 49.092 6.56317 48.7763 6.56317H46.8815L47.2469 4.48612L54.7158 1.37841L54.9238 1.58637V1.57891ZM163.417 12.9186C163.375 11.5897 162.835 11.2077 162.062 11.2077C161.181 11.2077 159.928 12.2881 159.454 14.6966L163.417 12.9186ZM168.186 13.641L159.064 17.8366C159.254 19.3983 160.127 20.4447 161.556 20.4447C163.051 20.4447 163.567 19.6054 163.567 19.2152C163.568 19.0457 163.515 18.8802 163.417 18.7421C163.3 18.5764 163.209 18.477 163.209 18.2608C163.2 18.1286 163.242 17.998 163.326 17.8954C163.588 17.6172 163.905 17.3966 164.256 17.2478C164.608 17.099 164.988 17.0253 165.37 17.0313C166.433 17.0313 167.38 17.8291 167.38 19.0421C167.38 21.6759 164.796 23.8109 160.751 23.8109C156.763 23.8109 153.913 21.3933 153.913 16.8159C153.913 12.7206 157.568 8.30053 162.129 8.30053C165.951 8.2997 167.613 10.2185 168.186 13.641ZM132.544 13.6079C132.544 11.9551 132.005 11.2077 131.024 11.2077C129.595 11.2077 128.05 14.2318 128.05 18.5267C128.05 20.1713 128.606 20.8946 129.578 20.8946C131.09 20.8946 132.553 17.4049 132.553 13.6079M137.737 14.8125C137.737 19.3163 134.497 23.8357 129.346 23.8357C125.425 23.8357 122.924 21.5507 122.924 16.9981C122.924 12.3544 126.43 8.24171 131.265 8.24171C135.028 8.24171 137.745 10.6178 137.745 14.8051M87.2577 25.6717C87.2577 25.3312 86.942 25.0992 86.2105 25.0992C85.372 25.0992 84.5245 25.2152 83.6603 25.2152C82.3457 25.2648 81.0383 24.9998 79.8467 24.4422C79.2651 24.8996 78.9163 25.4231 78.9163 26.1787C78.9163 27.1514 80.1873 27.9484 81.5916 27.9484C85.3066 27.9476 87.2577 26.5938 87.2577 25.6717ZM88.0978 12.5607C88.0978 11.7305 87.773 10.999 87.1003 10.999C85.5717 10.999 84.9147 13.8324 84.9147 15.5267C84.9147 16.7065 85.1641 17.2053 85.9702 17.2053C87.3157 17.2053 88.097 14.115 88.097 12.5524M97.4607 10.1025C97.4607 11.0578 96.6131 12.2293 95.7987 12.2293C95.5327 12.2293 95.4408 12.0387 95.2999 11.8382C95.2097 11.713 95.0816 11.62 94.9346 11.5731C94.8202 11.5297 94.699 11.507 94.5767 11.506C93.7042 11.506 93.0812 12.4944 93.0812 13.3676L93.1061 13.9658C93.0923 14.9117 92.8226 15.8362 92.3256 16.641C91.6724 17.6654 90.7725 18.5095 89.7085 19.096C88.6444 19.6825 87.4503 19.9927 86.2353 19.9981C85.311 20.0304 84.3883 19.898 83.5104 19.6071C83.3596 19.7713 83.2713 19.9834 83.261 20.2061C83.261 20.82 83.7515 20.9534 84.4988 20.9534C86.053 20.9534 87.4399 20.7206 88.8766 20.7206C91.3364 20.7206 93.1052 21.9335 93.1052 24.2011C93.1052 28.2301 86.9569 30.6816 81.2254 30.6816C77.8194 30.6816 74.5377 29.7007 74.5377 26.8101C74.5377 25.3809 75.3687 24.2682 77.2378 23.3618H70.4582L70.8492 21.0188C72.2121 20.9857 72.3447 20.8871 72.4689 20.023L73.3662 14.0329C73.483 13.2931 72.9843 12.7703 72.353 12.7703C71.1732 12.7703 69.9685 14.0992 69.802 15.1713L69.0216 20.1232C68.9213 20.7372 69.0547 21.0197 70.3422 21.0197L69.9768 23.3627H62.2096L62.5998 21.0197C63.9462 21.0197 63.9868 20.8208 64.0953 20.1232L65.0928 13.9418C65.1591 13.5267 65.0928 13.4936 64.7937 13.4936H62.8666L63.2569 11.4165L70.7009 8.33368L70.9089 8.54163L70.6098 10.3445C72.1052 9.04868 73.6338 8.33368 74.9884 8.33368C77.3646 8.33368 78.5269 10.5524 78.5269 12.5872C78.5269 12.8117 78.469 13.3685 78.4441 13.5847L77.4226 19.9733C77.2983 20.7463 77.8376 20.97 78.5858 21.0197C78.9594 19.5996 80.0149 18.8606 81.261 18.3536C80.7908 17.8712 80.4231 17.2985 80.1804 16.6701C79.9376 16.0417 79.8246 15.3706 79.8484 14.6974C79.8484 10.6518 83.4955 8.18454 87.2005 8.18454C88.8874 8.18454 90.981 8.74958 92.1442 10.5184C92.9843 9.04867 94.1881 8.18454 95.4416 8.18454C96.5634 8.18454 97.4524 8.89872 97.4524 10.0959M32.9329 13.6079C32.9329 11.9551 32.3844 11.2077 31.4043 11.2077C29.9752 11.2077 28.4383 14.2318 28.4383 18.5267C28.4383 20.1713 28.995 20.9029 29.9669 20.9029C31.4789 20.9029 32.9329 17.4132 32.9329 13.6079ZM38.1251 14.8125C38.1251 19.3163 34.8848 23.8357 29.7258 23.8357C25.8128 23.8357 23.3041 21.5507 23.3041 16.9981C23.3041 12.3544 26.8103 8.24171 31.6454 8.24171C35.4176 8.24171 38.1259 10.6178 38.1259 14.8051" fill="#59432D"></path>
</svg>
