<!-- sample rectangle -->
<svg xmlns="http://www.w3.org/2000/svg" width="auto" height="auto" viewBox="0 0 197 57" fill="none">
          <path d="M7.51902 17.4405C7.67902 17.6365 7.81502 17.8505 7.92202 18.0795C8.05502 18.2955 8.16202 18.5265 8.24202 18.7675L8.45402 19.3565C8.33303 19.4207 8.22133 19.5011 8.12202 19.5955C7.96643 19.6689 7.82362 19.7668 7.69902 19.8855C7.39129 19.9836 7.09361 20.1108 6.81002 20.2655C6.63798 20.3782 6.45506 20.4733 6.26402 20.5495C6.06995 20.6164 5.88275 20.7018 5.70502 20.8045L4.15202 21.5045L5.28202 23.6845L6.16902 25.2045L6.48902 25.7865L6.99402 26.6995C7.05802 26.6995 7.10402 26.7975 7.17502 26.9225L7.29202 27.3445C7.59802 27.8045 7.87902 28.2805 8.13302 28.7705L8.75102 29.9105C9.05802 30.5145 9.40102 31.0985 9.77702 31.6625C9.81802 31.7495 9.81802 31.8565 9.91302 31.9125C9.93202 31.9555 9.93502 32.0655 9.99902 32.0805L10.071 32.2015C10.116 32.2855 10.203 32.3465 10.184 32.4155C10.253 32.4155 10.23 32.6055 10.392 32.7955L10.969 32.4755C11.123 32.3415 11.292 32.2285 11.473 32.1365L12.673 31.4645C12.959 31.3585 13.233 31.2225 13.491 31.0575C13.712 30.9375 13.917 31.0925 14.124 31.4645L14.192 31.5945C14.428 31.9095 14.633 32.2465 14.807 32.6015L15.01 32.9815C15.194 33.5275 15.199 33.8515 15.09 33.9655C14.8002 34.1746 14.4965 34.3637 14.181 34.5315L13.562 34.8775L12.849 35.2725C12.763 35.3255 12.721 35.3495 12.696 35.4125C12.5381 35.5851 12.4107 35.7832 12.319 35.9985C12.319 36.0675 12.412 36.1685 12.506 36.3325C12.6 36.4965 12.706 36.5985 12.71 36.7125L13.005 37.2485L13.483 38.1145L13.86 38.8255L14.086 39.2355L14.29 39.6155C14.667 40.3235 14.935 40.9885 15.421 41.8585L15.696 42.3595L17.521 45.6595C17.6749 46.0392 17.8588 46.406 18.071 46.7565L18.275 47.1375L18.555 47.6305L18.983 48.4215L19.463 49.2915L19.643 49.6225C19.503 49.8475 19.306 50.0325 19.074 50.1625L18.938 50.2345L18.497 50.4825L18.271 50.6065L17.74 50.9025C17.5259 51.0057 17.3245 51.1336 17.14 51.2835L16.872 51.2155H16.695C16.6851 51.191 16.6698 51.169 16.6502 51.1511C16.6307 51.1333 16.6074 51.1201 16.582 51.1125L16.356 50.7025C16.3365 50.5915 16.2983 50.4847 16.243 50.3865C16.1533 50.2188 16.0755 50.045 16.01 49.8665C15.8891 49.5565 15.744 49.2566 15.576 48.9695C15.4826 48.7014 15.3559 48.4461 15.199 48.2095L14.724 47.3385L14.347 46.6315L13.732 45.5185C13.502 44.9945 12.91 43.9145 11.998 42.2615L8.41602 35.7515L7.68502 34.2315L6.79102 32.7115L5.98502 31.1915C4.89502 29.1995 3.91002 27.5275 2.74902 25.4145C2.60396 25.046 2.42869 24.6901 2.22502 24.3505L2.00002 23.9405C1.74702 23.4795 0.907022 22.0395 0.402022 21.1435C0.149022 20.6985 -0.0319778 20.3635 0.00602222 20.3405L1.42302 19.5465C1.97802 19.2915 2.44602 19.0835 2.80002 18.8855C3.05685 18.7953 3.30855 18.6911 3.55402 18.5735C3.67402 18.5085 3.78402 18.4265 3.88102 18.3305L4.28102 18.1105C4.44702 18.0765 4.90702 17.8905 5.75502 17.5095C6.31302 17.2515 6.69102 17.0955 6.82202 17.0225C7.02202 16.9665 7.27202 17.0955 7.52002 17.4455M31.675 10.3915C31.822 10.9385 32.003 11.6265 32.2 12.5535L32.5 13.8955L32.606 14.3055L32.73 14.7665C32.836 15.1765 32.96 15.6365 33.164 16.2175L33.337 16.8595L33.605 17.8635C33.715 18.0795 33.749 18.4135 33.921 18.8585L34.197 19.9155L34.382 20.6035L34.657 21.6515L34.827 22.2945L34.914 22.6145L34.952 22.7465C34.998 22.9485 35.066 23.1445 35.155 23.3315L35.313 23.9285L35.351 24.0645L35.4 24.4445C35.652 25.2045 36.014 26.5845 36.53 28.4655C37.047 30.3475 37.44 31.7005 37.696 32.6465C37.85 33.0495 37.926 33.3225 37.964 33.4565V33.5015C38.054 33.6705 38.12 33.8505 38.16 34.0375L38.231 34.3105L38.269 34.4515L38.326 34.6795L38.363 34.8205C38.42 34.9005 38.462 34.9885 38.487 35.0825C39.397 37.3365 39.909 37.8825 40.241 38.1225C40.4824 38.3039 40.7622 38.4274 41.0588 38.4836C41.3555 38.5397 41.6611 38.5271 41.952 38.4465H42.002C42.5446 38.3448 43.0486 38.0957 43.459 37.7265C43.871 37.355 44.1739 36.8783 44.335 36.3475C44.5175 35.6617 44.5764 34.9489 44.509 34.2425C44.4916 34.1624 44.4916 34.0795 44.509 33.9995C44.5173 33.8708 44.5003 33.7417 44.459 33.6195C44.279 32.5445 44.003 31.2935 43.706 29.7995L43.204 27.9225C43.011 26.9955 42.827 26.3075 42.744 25.7905L42.318 23.9935L42.103 23.1685L41.885 22.1495L41.402 20.3185L41.161 19.2045L40.467 16.5945L40.067 15.0745C39.63 13.4245 39.155 11.4405 39 10.8445L38.72 9.79047L38.66 9.56748L38.441 8.54148C38.3184 8.21525 38.2143 7.88239 38.129 7.54448L37.982 6.99848C38.016 6.94048 38.151 6.85647 38.445 6.77747L38.592 6.73548L39.84 6.50047C40.0604 6.40631 40.2873 6.32844 40.519 6.26748C40.715 6.21948 40.809 6.18748 40.873 6.22248C41.091 6.63248 41.274 7.05948 41.419 7.49948L41.88 9.23948C42.01 9.77748 42.167 10.3075 42.351 10.8275L42.548 11.9495L42.838 13.0515C42.92 13.3715 43.132 14.1505 43.478 15.2835L43.528 15.4615C43.578 15.6625 43.648 15.8585 43.734 16.0465L43.828 16.6085L43.882 16.7915C43.948 17.0495 44.032 17.3045 44.134 17.5515L44.319 18.2395L44.669 19.7595L45.424 22.7535L45.774 24.2735L46.185 26.0305C46.29 26.2435 46.367 26.4705 46.415 26.7025L46.502 27.2195L46.623 27.6755C46.638 27.9465 46.674 28.2155 46.728 28.4815C46.76 28.7375 46.809 28.9915 46.875 29.2415L47.143 30.6435C47.478 32.1965 47.643 33.7815 47.637 35.3715C47.58 35.8415 47.492 36.3065 47.377 36.7665C47.071 37.5835 46.887 38.0765 46.849 38.1305C46.849 38.2825 46.709 38.4115 46.516 38.6615C46.358 38.8515 46.231 39.0665 46.141 39.2975C45.7854 39.8415 45.3172 40.3029 44.768 40.6505C44.1311 41.0232 43.4529 41.3202 42.747 41.5355L42.645 41.5615C42.1341 41.6981 41.6088 41.7736 41.08 41.7865C40.585 41.7925 40.09 41.7265 39.614 41.5895C38.9679 41.3637 38.4018 40.9543 37.985 40.4115C37.3981 39.6656 36.8784 38.8691 36.432 38.0315C35.301 35.9305 34.312 33.0075 33.332 29.2915L33.009 28.0555L29.711 15.6285L28.753 12.2085L28.727 12.1165L28.629 11.5545C28.5516 11.3928 28.491 11.2235 28.448 11.0495C28.448 11.0035 28.448 11.0035 28.473 10.9425C28.4102 10.7614 28.3774 10.5712 28.376 10.3795C28.3114 10.3051 28.2682 10.2145 28.251 10.1175C28.1955 10.04 28.1557 9.95232 28.134 9.85948L28.082 9.67247C28.082 9.62747 28.342 9.46047 28.836 9.22447C28.885 9.22447 29.142 9.19047 29.499 9.14147C29.8329 9.08556 30.174 9.08827 30.507 9.14948L30.705 9.09548C31.049 9.00748 31.268 9.04548 31.329 9.27448C31.478 9.64348 31.596 10.0245 31.679 10.4145M56.527 4.85847C57.123 5.90647 57.616 7.55547 57.993 9.74547C58.055 10.0735 58.096 10.4045 58.113 10.7375L58.273 11.6725C58.443 12.6525 58.566 13.0635 58.623 13.3905C58.667 13.7685 58.68 14.1505 58.665 14.5305C58.669 14.7505 58.691 14.9705 58.728 15.1875C58.728 15.5675 58.728 16.1035 58.706 16.8335C58.7198 18.5955 58.4497 20.3483 57.906 22.0245C57.5688 22.9485 57.0262 23.7838 56.319 24.4675L58.442 25.1565C59.362 25.4295 60.056 26.1745 60.557 27.2885C61.059 28.4015 61.519 30.1495 61.914 32.4375C62.148 33.7905 62.291 34.7175 62.355 35.2915C62.435 35.6485 62.481 36.0115 62.492 36.3785C62.528 36.6325 62.605 36.8795 62.722 37.1085C62.5489 37.3297 62.2978 37.4764 62.02 37.5185H61.917L60.475 37.7735C59.961 37.8155 59.698 37.7735 59.671 37.6245C59.571 37.0315 59.485 36.4365 59.414 35.8395L59.23 34.7665C59.106 34.0645 58.989 33.3685 58.815 32.6735C58.303 30.5985 57.914 29.2255 57.609 28.6555C57.2543 28.0249 56.7185 27.5153 56.071 27.1925C54.966 26.7625 54.257 26.5505 53.911 26.6125C53.861 26.6125 53.834 26.7715 53.823 26.9915C53.85 27.1275 53.861 27.5165 53.967 28.1315L54.171 29.3015C54.452 30.6435 54.589 31.4375 54.645 31.7645C54.898 33.2095 55.079 34.2885 55.14 34.9045C55.174 35.1225 55.227 35.3375 55.302 35.5465C55.336 35.7365 55.407 35.8655 55.422 35.9605C55.43 36.0565 55.43 36.1535 55.422 36.2505L55.494 36.6635L55.618 37.3665C55.6309 37.4628 55.6628 37.5556 55.712 37.6395L55.754 37.8725L55.788 38.0585C55.772 38.0792 55.7612 38.1035 55.7565 38.1292C55.7519 38.1549 55.7534 38.1814 55.761 38.2065C55.784 38.3515 55.513 38.5405 54.936 38.7875C54.646 38.8835 54.346 38.9505 54.042 38.9885C52.945 39.1825 52.38 39.1875 52.297 38.9885C52.1648 38.533 52.0666 38.0684 52.003 37.5985C51.973 37.4125 51.599 34.9755 50.947 30.2785C50.878 29.8985 50.827 29.2945 50.736 28.4885L50.633 27.8845L50.411 26.6305L50.114 24.9055C50.023 24.1035 49.91 23.4455 49.831 22.9825C49.8114 22.8566 49.8114 22.7284 49.831 22.6025L49.771 22.2605L49.714 21.9335C49.6572 21.8348 49.6199 21.7262 49.604 21.6135C49.5684 21.4101 49.5524 21.2039 49.556 20.9975L49.466 20.4855L49.394 20.2085C49.338 19.5885 49.3 19.0685 49.247 18.7415C49.1034 18.2231 48.9935 17.696 48.918 17.1635L48.104 12.4475C47.985 11.7935 47.904 11.1335 47.864 10.4715C47.727 9.96147 47.618 9.64648 47.584 9.45648C47.5455 9.25351 47.5287 9.047 47.534 8.84048L47.418 8.19547C47.388 7.71247 47.282 7.10747 47.162 6.40847C46.959 4.88847 46.97 4.08647 47.199 3.94547L48.172 3.63048C48.6446 3.52676 49.103 3.36626 49.537 3.15247C49.755 3.10453 49.9769 3.07642 50.2 3.06848C50.42 3.06448 50.64 3.04147 50.856 3.00047C50.9942 2.98818 51.1287 2.94912 51.252 2.88547C51.402 2.85547 51.555 2.84348 51.709 2.85148C51.965 2.85148 52.169 2.82148 52.323 2.85148L52.787 2.77548C53.231 2.76748 53.673 2.82047 54.103 2.93147C54.6202 3.06807 55.1037 3.30965 55.5235 3.64117C55.9432 3.97269 56.2903 4.38705 56.543 4.85847M50.147 6.22248C50.154 6.58848 50.181 6.95447 50.23 7.31647C50.286 7.64047 50.512 8.66247 50.904 10.3235C51.261 11.8145 51.574 13.3165 51.839 14.8265C52.42 18.1895 52.779 20.2875 52.971 21.0745C53.064 21.3425 53.131 21.6215 53.167 21.9025L53.22 22.2325C53.306 22.4125 53.426 22.5335 53.502 22.6665L53.717 22.7245C54.189 22.4465 54.645 21.8375 55.044 20.8545C55.427 19.7445 55.694 18.5985 55.84 17.4335C55.9124 16.6744 55.8996 15.9097 55.802 15.1535L55.674 14.3935C55.594 13.9255 55.599 13.3485 55.493 12.7395C55.459 12.5585 55.372 12.3255 55.339 12.1435C55.094 11.0335 54.889 10.1515 54.799 9.64248C54.543 8.14548 54.09 7.02448 53.506 6.30648C53.1834 5.93088 52.7601 5.65538 52.286 5.51248C52.0651 5.46355 51.8372 5.45441 51.613 5.48548C51.3903 5.46446 51.1666 5.45678 50.943 5.46247C50.9043 5.51373 50.8531 5.55424 50.7943 5.58014C50.7355 5.60604 50.671 5.61649 50.607 5.61048C50.554 5.61048 50.467 5.68747 50.407 5.64847C50.3168 5.71262 50.2452 5.79954 50.1995 5.90037C50.1539 6.00121 50.1357 6.11235 50.147 6.22248ZM81.987 0.788475C82.281 0.998475 82.497 1.30447 82.597 1.65447C82.825 1.99647 83 2.37047 83.118 2.76447C83.225 3.00847 83.306 3.26347 83.363 3.52447C83.4 3.74947 83.465 3.96947 83.559 4.17847C83.693 4.76647 83.779 5.36447 83.815 5.96847L84.019 7.75847L84.06 8.46548C84.019 8.60948 83.97 8.66248 83.973 8.70848V8.76847C83.9931 8.78589 84.0089 8.80763 84.0193 8.83206C84.0297 8.85649 84.0344 8.88296 84.033 8.90948C83.777 9.10948 83.459 9.20947 83.137 9.19847H82.884C82.73 9.19847 82.273 9.19848 81.557 9.13348C80.984 8.88248 80.674 8.71147 80.667 8.57047V8.52547C80.5292 7.71357 80.445 6.89346 80.415 6.07048C80.4089 5.4012 80.303 4.73657 80.101 4.09847C79.9808 3.63965 79.7051 3.23674 79.321 2.95847C79.2283 2.88288 79.1216 2.82644 79.0069 2.79245C78.8922 2.75847 78.7719 2.74759 78.653 2.76047H78.45C78.3911 2.80048 78.3213 2.82142 78.25 2.82047C77.7259 2.96257 77.2635 3.2741 76.935 3.70648L76.377 4.69147C76.24 5.05647 76.159 5.44147 76.139 5.83147L76.162 6.16147C76.237 7.06147 76.441 7.94448 76.768 8.78448C76.996 9.37248 77.268 9.94247 77.578 10.4905C77.866 10.9965 78.595 12.1375 79.766 13.9105C80.376 14.8265 80.995 15.9245 81.73 17.1675C81.79 17.3045 81.903 17.5475 82.076 17.8555C82.251 18.1635 82.413 18.4025 82.454 18.5435C82.496 18.6835 82.741 19.0985 83.151 19.9715C83.154 20.1315 83.179 20.2915 83.227 20.4445C83.287 20.6305 83.295 20.7705 83.355 20.9145C83.545 21.1135 83.697 21.3445 83.803 21.5985C83.863 21.8315 84.053 22.3885 84.362 23.3205C84.362 23.3655 84.497 23.9735 84.765 25.0985C84.978 26.1295 85.126 27.1735 85.21 28.2235C85.3051 29.6145 85.1986 31.0119 84.894 32.3725C84.7951 32.8741 84.6353 33.3617 84.418 33.8245C84.2916 34.2298 84.0493 34.5893 83.721 34.8585C83.675 35.0065 83.385 35.2615 82.899 35.6185C82.5412 35.7913 82.1597 35.9103 81.767 35.9715L81.413 35.9945C81.301 36.0365 81.183 36.0595 81.063 36.0625C80.9266 36.0711 80.7897 36.0638 80.655 36.0405L80.248 36.0625C78.363 35.9375 76.414 35.6255 75.818 34.9525C75.223 34.2805 74.838 32.9695 74.688 31.0315C74.638 30.1355 74.594 29.3785 74.608 28.7515C74.544 28.5195 74.48 28.3295 74.48 28.2865C74.488 28.0625 74.507 27.8375 74.54 27.6145C74.4627 27.4884 74.4199 27.3443 74.416 27.1965C74.4049 27.0495 74.4306 26.902 74.491 26.7675C74.438 26.7175 74.431 26.6275 74.423 26.4825V26.2465C74.4246 26.2205 74.4204 26.1944 74.4107 26.1702C74.401 26.146 74.3861 26.1242 74.367 26.1065C74.408 25.9655 74.707 25.8515 75.253 25.6765C75.3405 25.6715 75.4261 25.6495 75.505 25.6115H75.811C76.083 25.6105 76.355 25.6255 76.625 25.6575C77.081 25.6575 77.379 25.7975 77.458 25.9875C77.478 26.2565 77.478 26.5265 77.458 26.7945L77.522 27.8315C77.568 28.6815 77.666 29.4425 77.752 30.0545C78.129 32.3545 78.714 33.5095 79.577 33.4745C79.675 33.4745 80.584 33.3645 80.837 33.3045C81.0892 33.2168 81.3026 33.0434 81.44 32.8145C81.605 32.5325 81.709 32.2185 81.745 31.8945C81.895 31.4805 81.954 31.0405 81.919 30.6025C81.95 30.2385 81.95 29.8725 81.919 29.5075C81.9361 29.1924 81.9361 28.8766 81.919 28.5615C81.899 28.1665 81.859 27.7735 81.799 27.3835L81.722 26.0565C81.496 23.9365 80.139 20.7365 77.662 16.5565C77.4939 16.2912 77.3426 16.0157 77.209 15.7315C77.0731 15.4469 76.9208 15.1705 76.753 14.9035L76.305 14.1195C76.131 13.7965 75.962 13.5225 75.845 13.2455L74.993 11.7255C74.118 9.82548 73.527 8.34747 73.312 7.21847C73.221 6.60647 73.145 6.13847 73.134 5.90347C73.0493 4.58232 73.3805 3.26779 74.081 2.14447C74.638 1.30147 75.568 0.724475 76.871 0.411475C77.6786 0.205837 78.504 0.0785809 79.336 0.031475C79.9924 -0.0484887 80.6584 0.0244099 81.282 0.244475C81.561 0.374475 81.816 0.551475 82.036 0.768475M91.656 4.20848C91.658 4.46248 91.676 4.71647 91.713 4.96847V8.61248C91.758 8.95948 91.781 9.30847 91.781 9.65847L91.891 17.5285C91.891 17.8555 91.891 18.3795 91.958 18.9955L91.977 20.3675C91.936 21.1725 91.894 21.7925 91.902 22.1225C91.902 22.3625 91.933 22.6005 91.996 22.8295L92.03 25.0615C92.102 30.5075 92.147 33.7255 92.106 34.6755V35.0065C92.072 35.113 92.0567 35.2247 92.061 35.3365C92.061 35.5275 91.808 35.6265 91.253 35.6335H90.744C90.337 35.6419 89.9299 35.6165 89.527 35.5575C88.916 35.3295 88.607 35.1435 88.607 34.9525L88.543 17.8895C88.543 16.9895 88.524 16.2815 88.565 15.8525L88.539 13.8625V10.1675C88.529 9.86747 88.541 9.56548 88.573 9.26748V8.41547L88.474 4.76748C88.505 3.34548 88.494 2.44548 88.474 2.06848V1.16847C88.476 0.974475 88.508 0.781475 88.569 0.598475C88.519 0.552475 88.468 0.503475 88.468 0.457475C88.468 0.411475 88.468 0.407475 88.415 0.407475C88.362 0.407475 88.569 0.362475 88.871 0.359475H89.225C89.5086 0.307882 89.797 0.287094 90.085 0.297475C90.323 0.283475 90.562 0.297475 90.797 0.336475C91.306 0.336475 91.551 0.415475 91.551 0.559475C91.611 1.12647 91.68 2.36047 91.705 4.20447M108.302 9.29348L108.261 10.4795V10.5245C108.267 10.5909 108.248 10.6571 108.208 10.7105C108.203 10.7365 108.19 10.7601 108.17 10.7775C108.15 10.795 108.125 10.8049 108.098 10.8055C108.05 10.8485 107.997 10.8485 107.846 10.8445C107.695 10.8395 107.643 10.8815 107.537 10.9275C107.235 10.8665 106.783 10.7075 106.183 10.5475C105.584 10.3875 105.128 10.2735 105.128 10.1675L105.109 9.31147C105.135 8.60147 105.109 8.93148 105.052 6.80048C105.032 6.3953 104.96 5.99436 104.838 5.60747C104.769 5.27524 104.662 4.95232 104.517 4.64547C104.449 4.48058 104.35 4.33062 104.224 4.20416C104.099 4.07771 103.949 3.97723 103.785 3.90847C103.296 3.75101 102.79 3.65265 102.278 3.61547H102.025C100.754 3.56947 100.064 4.53947 99.687 5.04847C99.41 5.65419 99.2489 6.30644 99.212 6.97148V7.20647L99.193 7.77247L99.159 8.38947V8.67447C99.065 9.85947 98.952 11.7145 98.729 16.2745C98.752 17.1795 98.729 18.2655 98.666 19.6415C98.601 21.0175 98.582 21.9215 98.613 22.3855C98.51 26.6455 98.688 28.8855 99.05 30.0355C99.1 30.2365 99.179 30.4305 99.284 30.6095C99.524 31.1615 99.848 31.6735 100.242 32.1295C100.493 32.4365 100.815 32.6755 101.18 32.8295C101.362 32.8765 101.55 32.8995 101.738 32.8975H102.039C102.794 32.9235 103.314 32.7975 103.578 32.4755C103.578 32.4295 103.635 32.3395 103.842 32.1525L104.162 31.7725C104.221 31.6395 104.292 31.5125 104.373 31.3925C104.497 31.2065 104.591 31.0025 104.652 30.7885C104.722 30.5585 104.78 30.3225 104.826 30.0845C105.023 29.5067 105.149 28.9074 105.203 28.2995C105.213 27.9665 105.207 27.6325 105.184 27.2995L105.12 26.3495C105.125 26.1899 105.113 26.0303 105.083 25.8735C105.083 25.6835 105.083 25.5405 105.048 25.4935C104.745 25.5335 104.441 25.5545 104.136 25.5585L102.861 25.6535L101.693 25.7535C101.542 25.7535 101.44 25.7535 101.387 25.6955C101.367 25.7137 101.343 25.7266 101.317 25.7333C101.291 25.7399 101.263 25.74 101.237 25.7335C101.237 25.6915 101.187 25.6875 101.139 25.6385C101.054 25.2477 101.018 24.8481 101.03 24.4485V23.8835C100.995 23.7121 100.985 23.5367 100.999 23.3625V23.3125C101.009 23.1455 101.05 22.9825 101.12 22.8295C101.173 22.7355 101.229 22.6895 101.278 22.6935C102.344 22.748 103.412 22.739 104.476 22.6665H104.826L106.451 22.7265C107.106 22.7995 107.514 22.8155 107.661 22.8225H107.966C108.069 22.8725 108.106 23.1565 108.136 23.7765C108.237 24.1165 108.275 24.4715 108.249 24.8265V25.2505L108.208 25.9275L108.17 26.8775L108.151 27.4435C107.989 31.8445 106.824 34.5505 104.713 35.5655C104.341 35.7515 103.943 35.8796 103.532 35.9455C103.158 35.9975 102.779 36.0155 102.401 35.9985C102.164 35.9766 101.925 35.984 101.689 36.0205H101.485C101.464 36.0388 101.44 36.0522 101.413 36.0595C101.386 36.0668 101.358 36.0678 101.331 36.0625C101.11 36.0405 100.891 36.0028 100.675 35.9495C100.477 35.9056 100.275 35.8824 100.072 35.8805C99.633 35.7425 99.202 35.5805 98.782 35.3945C97.44 34.6825 96.525 33.3215 96.037 31.3125C95.903 30.8298 95.8199 30.3344 95.789 29.8345C95.7029 29.4608 95.6649 29.0777 95.676 28.6945L95.635 28.3675C95.6581 28.0663 95.6581 27.7637 95.635 27.4625C95.663 27.1631 95.663 26.8618 95.635 26.5625V24.7605L95.74 21.8755C95.763 21.2565 95.796 20.3555 95.79 19.1255C95.8044 18.8247 95.7977 18.5233 95.77 18.2235L95.8 17.3735V16.5175L95.819 15.9515V15.7155C95.8301 15.4619 95.8224 15.2079 95.796 14.9555C95.8187 14.7022 95.8123 14.4473 95.777 14.1955L95.822 12.7745L95.792 12.2995L95.834 11.1175L95.966 8.93647L96.022 7.23347C96.087 5.62947 96.328 4.45148 96.708 3.66048L96.992 2.95847C97.42 2.15925 98.0762 1.5055 98.877 1.08047C99.7196 0.590782 100.67 0.316992 101.644 0.283475C102.117 0.254475 102.592 0.254475 103.065 0.283475C103.831 0.38702 104.576 0.60724 105.275 0.936475C105.849 1.3117 106.358 1.77778 106.783 2.31647C107.609 3.34547 108.066 4.78447 108.151 6.63447C108.211 7.72847 108.231 8.62547 108.256 9.29447M119.141 2.68847C119.144 3.09247 119.182 3.49547 119.254 3.89247C119.277 4.13247 119.314 4.65247 119.378 5.43547C119.421 5.72247 119.438 6.01248 119.428 6.30148C119.481 6.73548 119.537 7.12747 119.548 7.44147C119.65 8.74247 119.755 10.0415 119.948 11.4035C120.088 12.4205 120.174 12.9565 120.163 13.0515C120.152 13.1475 120.219 13.4315 120.245 13.6785C120.302 13.8685 120.33 14.0655 120.328 14.2635C120.431 14.7045 120.509 14.9025 120.502 14.9485C120.63 15.1685 120.723 15.4055 120.777 15.6555L120.905 16.3355L121.132 15.6965C121.235 15.5452 121.305 15.3743 121.339 15.1945V15.1005C122.59 12.2425 123.707 10.1375 124.913 7.27947C124.974 7.18847 125.132 6.72747 125.429 5.90347C125.984 4.68347 126.455 3.74147 126.836 3.06848C126.961 2.83348 127.108 2.61047 127.273 2.40247C127.326 2.36547 127.345 2.22447 127.409 2.08747C127.484 1.96647 127.566 1.85047 127.654 1.73747C127.731 1.68399 127.825 1.66116 127.918 1.67347C128.083 1.71847 128.25 1.75447 128.42 1.78047C128.571 1.79747 128.724 1.79747 128.876 1.78047L129.177 1.81747C129.402 1.82989 129.621 1.88952 129.821 1.99247C129.867 2.04547 129.965 2.05748 130.063 2.11448L130.263 2.13748C130.308 2.19448 130.41 2.20547 130.456 2.25947C130.501 2.31247 130.545 2.31947 130.542 2.36147C130.538 2.40347 130.587 2.41847 130.584 2.46447C130.623 2.62008 130.623 2.78287 130.584 2.93847L130.55 3.22347C130.545 3.39347 130.512 3.56047 130.451 3.71847C130.49 4.06547 130.484 4.41748 130.433 4.76248C130.406 4.95248 130.406 5.38248 130.387 5.99848C130.311 6.50177 130.268 7.00954 130.259 7.51848L130.014 9.59048C129.943 10.6315 129.856 11.3825 129.792 11.9505L129.599 13.5955C129.619 13.9285 129.619 14.2615 129.599 14.5945C129.588 14.7253 129.556 14.8535 129.505 14.9745L129.46 15.3545L129.392 15.9185L129.26 17.0585L128.724 21.6185C128.702 21.8563 128.658 22.0916 128.593 22.3215L128.506 23.0815C128.427 23.597 128.382 24.1171 128.37 24.6385C128.346 24.8429 128.304 25.045 128.246 25.2425L128.167 25.9545L128.013 27.2685C127.986 27.4895 127.943 27.7085 127.884 27.9225L127.809 28.5345C127.748 29.0465 127.665 29.7545 127.507 30.6895C127.386 31.4059 127.284 32.1255 127.202 32.8475C127.111 33.1705 126.968 33.9655 126.776 35.1855C126.692 35.9271 126.537 36.6588 126.312 37.3705C126.289 37.5565 125.977 37.6135 125.369 37.5405C125.15 37.5605 124.929 37.5605 124.71 37.5405L124.306 37.4915L123.952 37.4465C123.609 37.3595 123.409 37.2865 123.367 37.1875L123.386 37.0475L123.42 36.7615C123.439 36.6255 123.447 36.5265 123.42 36.4775L123.567 35.2505C123.618 34.6845 123.701 34.1225 123.816 33.5655L123.907 32.8055C123.973 32.5465 124.021 32.2825 124.05 32.0155L124.083 31.7305C124.117 31.4485 124.219 30.9705 124.355 30.2865L124.461 29.3895C124.483 29.0575 124.538 28.7295 124.626 28.4085C124.732 27.9305 124.806 27.4455 124.849 26.9575C124.977 26.2995 125.033 25.8175 125.068 25.5015L125.15 24.7945C125.221 24.5344 125.271 24.2688 125.298 24.0005L125.331 23.7195L125.395 23.1565C125.459 22.9435 125.502 22.7245 125.524 22.5035C125.536 21.9945 125.578 21.4875 125.648 20.9835C125.762 20.4565 125.843 19.9235 125.89 19.3875L126.293 15.9355C126.333 15.6225 126.353 15.3055 126.353 14.9905L126.459 14.0975C126.515 13.6264 126.552 13.1534 126.572 12.6795C126.606 11.9645 126.662 11.4975 126.685 11.3105L126.451 11.5705L125.886 12.8805C125.807 13.1165 125.746 13.2005 125.743 13.2605C125.449 13.7139 125.204 14.1969 125.011 14.7015C124.665 15.4615 124.393 16.0535 124.238 16.4685C123.484 18.0495 123.017 19.0865 122.704 19.5735C122.253 20.4305 121.889 21.3307 121.618 22.2605C121.37 23.0794 121.046 23.8732 120.649 24.6315C120.581 24.7645 120.37 24.8335 120.016 24.7915C119.85 24.7872 119.693 24.7174 119.579 24.5975C119.423 24.3883 119.312 24.1489 119.254 23.8945C119.217 23.7915 119.19 23.5985 119.114 23.3475C119.027 23.1737 118.963 22.9895 118.922 22.7995C118.888 22.6545 118.802 22.5495 118.816 22.4195C118.753 22.2431 118.707 22.0613 118.677 21.8765L118.632 21.3975C118.632 21.3475 118.557 21.1465 118.5 20.7585C118.389 20.4609 118.323 20.1485 118.304 19.8315L117.995 18.1215L117.633 15.9895L117.094 12.3445L116.657 10.0045L116.431 11.8855L116.295 13.0715C116.195 13.5335 116.123 14.0015 116.08 14.4725C115.999 15.0846 115.944 15.6998 115.914 16.3165L115.691 18.1935C115.65 18.5235 115.593 18.9965 115.567 19.6605L115.371 21.1885L115.209 22.5985C115.115 23.0635 115.042 23.5325 114.991 24.0045C114.828 25.3645 114.542 27.3835 114.236 30.0845C113.937 32.0034 113.677 33.9281 113.456 35.8575C113.429 36.0975 113.161 36.2035 112.607 36.1395H111.789C111.618 36.1378 111.449 36.1014 111.292 36.0325C110.757 35.8285 110.537 35.6525 110.489 35.5075L110.515 35.2685C110.485 35.1605 110.485 35.0464 110.515 34.9385L110.564 34.5585L110.594 34.2765L110.673 33.6185C110.707 33.2885 110.805 32.4785 110.896 31.3085L111.235 28.3935C111.27 28.1095 111.287 27.8235 111.284 27.5385L111.442 26.2235C111.506 25.7835 111.539 25.3415 111.54 24.8975C111.69 24.3135 111.795 23.7195 111.853 23.1195C111.877 22.5045 111.935 21.8915 112.023 21.2835C112.136 20.7245 112.238 19.8735 112.37 18.7435L112.513 17.5215C112.785 15.6475 112.985 14.3815 113.056 13.7705C113.203 12.9805 113.339 11.8015 113.573 10.2555C113.807 8.70847 114.01 7.39747 114.198 6.22547C114.387 5.05647 114.613 4.03747 114.828 3.06047C114.843 2.93027 114.874 2.80253 114.922 2.68047C114.991 2.49447 115.061 2.36147 115.066 2.30047C115.069 2.24047 115.133 2.16048 115.145 2.06848L115.167 1.87847V1.74147L115.217 1.36147L115.247 1.03147C115.269 0.895475 115.624 0.891475 116.332 0.970475C116.688 0.959475 117.044 0.970475 117.399 1.00447C117.638 1.01506 117.874 1.05985 118.1 1.13747C118.734 1.35747 119.069 1.51747 119.055 1.68147C119.064 2.01847 119.093 2.35447 119.141 2.68847ZM140.676 36.6565C140.676 36.4165 140.774 35.7135 140.857 34.6115C140.94 33.5095 141.023 32.8555 141.094 32.0495C141.166 31.2445 141.155 30.7995 141.027 30.6775L140.929 30.6545C140.778 30.6234 140.624 30.607 140.469 30.6055L139.926 30.4845L139.677 30.4345L139.085 30.3015C138.846 30.2127 138.6 30.1441 138.35 30.0965L137.954 30.0055L137.506 29.9055C137.333 29.8338 137.154 29.7805 136.97 29.7465C136.822 29.7065 136.67 29.6895 136.517 29.6935L136.141 29.6055C135.5 29.4695 135.081 29.4725 134.904 29.5835C134.802 29.8035 134.436 30.7845 133.841 32.5975C133.147 34.3835 133.068 34.4975 132.947 34.8275C132.827 35.1585 132.74 35.5535 132.57 36.0515C132.4 36.5495 132.152 37.0285 131.933 37.5715L131.458 38.5865C131.219 38.5947 130.98 38.5742 130.746 38.5255L130.497 38.4725L130.346 38.4385L129.751 38.3125C128.766 38.0925 128.291 37.8945 128.291 37.6515V37.5595C128.325 37.4195 128.506 37.0735 128.732 36.4895C128.955 36.1355 129.126 35.7515 129.238 35.3485C129.663 34.3629 130.035 33.3555 130.353 32.3305C131.01 30.4845 131.356 29.3515 131.484 28.9945C131.612 28.6375 131.745 28.2725 131.952 27.7855C132.159 27.2995 132.303 26.8935 132.397 26.6725L132.815 25.4525L133.422 23.8415C133.649 23.332 133.832 22.8041 133.969 22.2635C133.999 22.1235 134.094 21.8835 134.225 21.5455C134.308 21.2835 134.415 21.0285 134.542 20.7855L135.058 19.3485C136.099 16.4225 136.642 14.8945 136.653 14.7885L137.408 13.0555C137.628 12.4375 137.88 11.8315 138.161 11.2395C138.191 11.0985 138.406 10.5665 138.836 9.54447C139.134 8.87947 139.391 8.16147 139.639 7.48847L140.344 5.65648C140.459 5.35348 140.591 5.05847 140.74 4.77047C140.801 4.73647 140.849 4.74847 140.951 4.77047C141.053 4.79047 141.15 4.82747 141.238 4.88147L141.615 4.96448L141.765 4.99848C141.996 4.90048 142.55 4.97248 143.439 5.16848C145.023 5.51148 146.135 5.90347 146.832 6.34347C146.779 9.00447 146.682 10.6725 146.603 11.2845L146.372 12.8315L145.675 19.4665C145.298 22.3895 145.094 24.5745 144.951 25.9965L144.691 29.3785C144.668 29.7125 144.62 30.1885 144.597 30.7605L144.48 31.9505C144.386 33.1405 144.344 33.8095 144.303 33.9955L144.266 34.1825C144.15 34.7449 144.097 35.3184 144.107 35.8925C144.035 36.6975 143.982 37.1725 143.994 37.3705C143.92 37.6791 143.871 37.9931 143.846 38.3095L143.824 39.1265C143.726 39.8285 143.704 40.1675 143.696 40.2135L143.643 40.4455C143.598 40.6962 143.578 40.9508 143.583 41.2055C143.292 41.2347 142.998 41.2192 142.712 41.1595C142.192 41.0954 141.673 41.0153 141.158 40.9195C140.612 40.7995 140.329 40.6845 140.356 40.5395V40.4935C140.356 39.8135 140.567 37.8335 140.665 36.6335M139.801 26.4825L140.442 26.6265C140.656 26.6865 140.877 26.7165 141.099 26.7185L141.804 26.8235L141.901 25.8735C141.951 24.9205 142.06 24.1635 142.139 23.5515C142.189 23.3365 142.219 23.1165 142.23 22.8945C142.247 22.6255 142.287 22.3585 142.35 22.0965L142.697 19.0215C142.837 17.6465 142.987 16.4685 143.074 15.5685C143.179 14.4722 143.258 13.3735 143.311 12.2735C143.425 11.0924 143.474 9.9059 143.455 8.71947C143.455 8.67447 143.425 8.61748 143.327 8.59348C143.241 8.57699 143.152 8.57699 143.066 8.59348L142.821 8.54148C142.793 8.53888 142.767 8.5304 142.743 8.5166C142.719 8.50279 142.698 8.484 142.682 8.46148L141.969 10.0995C141.411 11.4785 141.072 12.3255 140.887 12.7215L140.189 14.5075C140.054 14.9145 139.813 15.5915 139.553 16.5065C139.417 17.0771 139.245 17.6383 139.036 18.1865L138.195 20.6645C137.504 22.2051 136.952 23.8049 136.548 25.4445L136.51 25.6305C136.955 25.8485 137.423 26.0145 137.905 26.1255C138.076 26.1175 138.247 26.1365 138.411 26.1855L139.002 26.3185L139.801 26.4825ZM160.205 10.0075L164.661 11.3945C164.899 11.4715 164.843 11.9995 164.53 13.0375C164.292 13.7975 164.07 14.1775 163.926 14.1425C162.614 13.7325 161.261 13.3145 159.892 12.9335H159.843C159.662 13.5235 159.357 14.5185 158.878 15.9095L158.09 18.4865C155.47 27.0405 154.795 28.0215 151.387 39.1565L151.289 39.4755L151.108 40.0615C151.076 40.218 151.013 40.3665 150.923 40.4985C150.861 40.7115 150.78 40.9185 150.682 41.1175C150.619 41.3634 150.527 41.6008 150.407 41.8245C150.361 42.1545 150.354 42.3565 150.328 42.4435C150.306 42.5245 150.264 42.599 150.207 42.6605L150.15 42.8355C150.114 42.9708 150.055 43.0992 149.977 43.2155L149.868 43.5955C149.788 43.8655 149.166 43.8225 147.952 43.4435C147.13 43.1925 146.72 42.9655 146.776 42.7825C146.874 42.4625 146.999 42.0605 147.199 41.5735C147.236 41.4405 147.372 41.1935 147.53 40.8365C147.577 40.6845 147.607 40.5265 147.62 40.3695L147.745 39.9625L147.801 39.7825L147.937 39.3275L148.202 38.4645C148.325 38.2425 148.416 38.0055 148.473 37.7585C148.57 37.5602 148.651 37.3541 148.714 37.1425L150.018 32.8625C150.644 30.8255 151.127 29.2445 151.553 28.0365C151.701 27.4865 151.884 26.9475 152.099 26.4205L152.194 26.1055C152.277 25.8325 152.465 25.3995 152.722 24.7345C152.814 24.4465 152.886 24.1545 152.94 23.8555L153.2 22.9975L154.354 19.2425L155.021 17.2205L155.244 16.4985C155.394 15.9975 155.375 16.2365 155.523 15.9355C155.611 15.6478 155.682 15.3549 155.734 15.0585C155.847 14.7465 155.929 14.4255 155.979 14.0975L156.439 12.6035L156.616 12.0135L156.635 11.9695L151.662 10.5205C151.436 10.4025 151.47 9.76047 151.806 8.68147C152.024 7.95947 152.232 7.62547 152.473 7.70047H152.522C152.635 7.78047 152.763 7.83847 152.899 7.86847C153.029 7.90847 153.163 7.93447 153.299 7.94447L153.736 8.07747L153.977 8.15347C154.015 8.21347 154.158 8.25947 154.354 8.32047C154.532 8.37676 154.715 8.41627 154.901 8.43847L155.433 8.60547L155.673 8.67747L160.205 10.0075ZM170.52 17.0455L170.241 17.7525C170.179 18.0125 170.094 18.2665 169.989 18.5125L169.759 19.0865L169.307 20.2265L168.929 21.1505C168.835 21.485 168.722 21.8139 168.59 22.1355L165.668 29.4155L165.137 30.8115C164.956 31.4035 164.759 31.8415 164.677 32.1025C164.33 32.8325 164.054 33.3825 163.923 33.6915C163.82 33.9075 163.747 34.1361 163.704 34.3715L162.875 36.4165C160.676 41.9085 159.41 45.0705 159.01 45.9165C158.976 46.0248 158.918 46.124 158.84 46.2065L158.716 46.5135C158.667 46.6395 158.339 46.6135 157.751 46.4715C157.717 46.4115 157.578 46.3515 157.344 46.2595C156.45 45.8795 155.873 45.5565 155.945 45.3815L162.542 28.5315L162.701 28.1505C162.931 27.5805 163.124 27.0985 163.346 26.6765L164.099 24.8325L164.575 23.6475L164.82 23.0315L165.808 20.5685C165.948 20.3225 166.074 20.0685 166.185 19.8085L167.316 16.9555C167.745 16.0055 168.009 15.3435 168.152 14.9935L168.488 14.1565C168.521 14.0814 168.534 13.9991 168.526 13.9175C168.526 13.8155 168.583 13.7925 168.647 13.7665C168.627 13.7275 168.619 13.683 168.626 13.6395C168.634 13.5965 168.656 13.5573 168.688 13.5275L168.722 13.4355C168.722 13.3935 168.881 13.4355 169.16 13.5655L169.491 13.7015C169.725 13.7475 169.951 13.8215 170.166 13.9255L170.449 14.0405L170.588 14.0975C171.165 14.4315 171.41 14.6375 171.38 14.7205C171.135 15.5219 170.853 16.3117 170.536 17.0875M167.447 35.2345C167.734 34.5805 167.953 34.0565 168.107 33.7645C168.345 33.212 168.612 32.6726 168.907 32.1485C169.193 31.6085 169.661 30.6285 170.374 29.1315C171.086 27.6345 171.61 26.4705 172.029 25.6655L172.293 25.1675C172.42 24.9113 172.567 24.6658 172.733 24.4335L173.11 23.7275L173.307 23.3475C174.279 21.5066 175.516 19.8186 176.979 18.3375C178.151 17.3055 179.332 16.9125 180.447 17.0835C180.715 17.0815 180.982 17.1315 181.232 17.2315C181.408 17.3125 181.596 17.3615 181.789 17.3725L182.189 17.5895C182.511 17.7275 182.791 17.9515 183 18.2355C183.569 18.6834 184.036 19.2469 184.371 19.8889C184.706 20.5309 184.9 21.2366 184.942 21.9595C185.088 23.5489 184.765 25.1463 184.014 26.5545L183.486 27.6645C183.471 27.687 183.461 27.7126 183.456 27.7395C183.453 27.7663 183.455 27.7936 183.463 27.8195L183.373 27.9835C183.154 28.4055 182.641 28.3985 181.793 27.9415L181.571 27.8205L181.299 27.6745C180.805 27.4145 180.545 27.2315 180.488 27.0295C180.523 26.9726 180.539 26.906 180.533 26.8395C180.524 26.7726 180.54 26.7047 180.579 26.6495L181.307 25.2665C181.759 24.3565 181.974 23.3475 181.933 22.3325C181.88 21.3365 181.555 20.6725 180.96 20.3605C180.635 20.1516 180.241 20.0764 179.862 20.1505C179.447 20.2416 179.064 20.4438 178.754 20.7355C178.458 21.0155 178.185 21.3185 177.936 21.6405C177.736 21.9105 177.424 22.2795 177.096 22.8005C177.023 22.8645 176.963 22.9414 176.918 23.0275L176.586 23.6555L176.41 23.9895L176.213 24.3695L175.663 25.4095L174.362 27.8805L174.034 28.5085C173.869 28.815 173.722 29.1305 173.593 29.4535C173.47 29.7627 173.33 30.0649 173.174 30.3585L172.251 32.2245C172.055 32.7075 171.614 33.5475 171.018 34.7825C170.422 36.0175 169.94 36.9415 169.653 37.5945C169.435 38.0125 169.171 38.6165 168.839 39.3575L168.443 40.1175C168.333 40.3305 168.247 40.6035 168.088 41.0035C167.98 41.2846 167.854 41.5588 167.712 41.8245L167.531 42.1545C167.489 42.3485 167.357 42.6035 167.225 42.9605C167.113 43.2268 167.026 43.503 166.965 43.7855C166.943 43.9295 166.856 44.2075 166.747 44.6365C166.668 44.9217 166.611 45.2125 166.577 45.5065C166.573 45.7307 166.588 45.9548 166.622 46.1765C166.635 46.3106 166.675 46.4406 166.74 46.5587C166.805 46.6768 166.893 46.7805 166.999 46.8635C167.253 47.1214 167.548 47.3344 167.873 47.4935C168.048 47.5819 168.242 47.628 168.439 47.628C168.635 47.628 168.829 47.5819 169.004 47.4935C169.393 47.3345 169.73 47.0715 169.981 46.7345C170.274 46.4815 170.514 46.1735 170.686 45.8265C170.829 45.6565 170.949 45.4665 171.04 45.2635L171.214 44.9255L171.372 44.6335C171.526 44.4507 171.653 44.247 171.75 44.0285L172.04 43.4885C172.291 42.9405 172.617 42.4285 173.009 41.9685C173.121 41.8625 173.344 41.8785 173.762 42.0525C173.839 42.0946 173.924 42.1205 174.012 42.1285C174.129 42.1525 174.242 42.1955 174.347 42.2545C174.529 42.3475 174.701 42.4585 174.859 42.5875C175.031 42.7065 175.196 42.8325 175.354 42.9685L175.553 43.1285L174.347 45.4315C173.748 46.6637 172.973 47.8029 172.048 48.8135C171.938 48.9155 171.58 49.2615 170.935 49.8285C169.759 50.8655 168.782 51.1995 167.979 50.8765C167.597 50.8402 167.228 50.7167 166.901 50.5155C166.508 50.2517 166.099 50.0129 165.676 49.8005C164.662 49.0446 163.974 47.9307 163.753 46.6855C163.547 45.4478 163.608 44.1802 163.934 42.9685C164.412 41.5409 165.008 40.1552 165.714 38.8255C166.09 38.0655 166.419 37.4885 166.573 37.0845L166.792 36.6675C166.946 36.3745 167.146 35.9075 167.429 35.2375M33.843 40.9165C33.751 40.5365 33.676 40.2295 33.634 39.9935C33.634 39.9475 33.566 39.6705 33.419 39.1765C33.272 38.6825 33.152 38.2265 33.043 37.9215C32.96 37.7065 32.835 37.2575 32.624 36.5845L32.428 36.0645C32.4006 36.0033 32.3926 35.9353 32.405 35.8695L32.3 35.6075C32.2298 35.4478 32.1346 35.3003 32.018 35.1705C31.5854 33.6403 31.0628 32.137 30.453 30.6685L30.11 29.8005L29.732 28.8885L28.839 26.6315L28.372 25.3135L28.198 24.8765L28.028 24.4425L27.874 24.0625C27.8191 23.943 27.7885 23.8139 27.784 23.6825L27.644 23.3365C27.6068 23.2165 27.5452 23.1055 27.463 23.0105C27.4042 22.8802 27.3661 22.7415 27.35 22.5995L27.18 22.1655C27.0849 21.9303 26.9581 21.7092 26.803 21.5085C26.1018 19.6754 25.1775 17.9356 24.051 16.3285C23.3161 15.2215 22.363 14.2762 21.25 13.5505L22.381 13.1365C22.43 13.1025 22.475 13.0645 22.523 13.0335C22.667 12.9535 22.795 12.8775 22.927 12.8205C23.1646 12.6393 23.3402 12.3889 23.4294 12.1037C23.5186 11.8186 23.517 11.5127 23.425 11.2285C23.3215 10.9705 23.1441 10.7489 22.915 10.5915C22.6865 10.4345 22.4163 10.3492 22.139 10.3465C21.707 10.4747 21.2859 10.6376 20.88 10.8335C20.375 11.0655 19.862 11.2135 19.372 11.3805L19.27 11.4305L16.767 12.5435L16.657 12.5855H16.627C16.489 12.6255 16.36 12.6945 16.25 12.7875C15.6215 13.2116 15.1046 13.781 14.743 14.4475C14.3317 15.1724 14.0746 15.9745 13.988 16.8035C13.988 17.4605 13.951 17.9255 13.963 18.2245C13.988 18.6575 14.05 19.0865 14.147 19.5095C14.242 20.0165 14.407 20.7045 14.64 21.5735L15.014 22.4515C15.119 22.8575 15.24 23.1575 15.278 23.3935C15.33 23.5265 15.447 23.8305 15.628 24.4115L16.005 25.8145C16.095 26.0315 16.265 26.4685 16.514 27.2215C16.764 27.9735 16.932 28.5615 17.06 29.0135L18.03 31.7435C18.118 31.9585 18.189 32.1815 18.24 32.4085C18.283 32.6085 18.342 32.8035 18.418 32.9935L18.897 34.2095L19.651 35.6695L19.861 36.3415L20.408 37.7285L20.665 38.3825C21.043 39.3325 21.317 40.0315 21.535 40.4465C21.623 40.6625 21.807 40.9895 22.06 41.4905C22.313 41.9925 22.595 42.4365 22.893 42.9165C23.127 43.3765 23.293 43.6765 23.327 43.7475C24.497 45.3405 25.676 46.2795 26.943 46.6175H27.583C27.7669 46.6034 27.9518 46.6135 28.133 46.6475C28.551 46.6565 28.967 46.6085 29.37 46.5035L30.762 45.9335L30.992 45.8415C31.353 45.6915 31.692 45.4885 31.994 45.2375C32.3703 44.9151 32.7151 44.5578 33.024 44.1705C33.316 43.7955 33.532 43.3665 33.657 42.9085C33.7829 42.4562 33.8515 41.9899 33.861 41.5205L33.898 41.2055C33.8939 41.1098 33.875 41.0154 33.842 40.9255M30.038 42.5935C29.8603 42.8852 29.5965 43.1148 29.283 43.2505C28.924 43.4085 28.543 43.5105 28.153 43.5505C27.7739 43.5921 27.3925 43.4963 27.078 43.2805C26.7477 43.0711 26.4492 42.8151 26.192 42.5205C25.879 42.1405 25.585 41.8135 25.34 41.4565C24.91 40.7765 24.029 38.8195 22.739 35.5625L21.728 33.0005L21.257 31.6865L21.001 31.0295L20.288 28.9655C20.1095 28.3505 19.9211 27.7384 19.723 27.1295C19.478 26.3695 19.236 25.7695 19.101 25.4195C18.87 24.7095 18.693 24.1235 18.573 23.8195C18.308 23.0255 18.169 22.5235 18.083 22.2995C18.113 22.2385 18.083 22.1505 18.057 21.9615C18.0322 21.8054 17.9903 21.6524 17.932 21.5055L17.845 21.3115C17.7782 21.2408 17.728 21.156 17.698 21.0635C17.623 20.7415 17.558 20.3035 17.453 19.9235C17.48 19.8675 17.34 19.3695 17.166 18.5295C17.1367 18.0082 17.2045 17.486 17.366 16.9895C17.366 16.7395 17.586 16.4495 18.026 16.0745C18.454 15.9555 18.908 15.9645 19.331 16.1005C19.531 16.1115 19.72 16.1985 19.858 16.3445C20.04 16.4415 20.212 16.5575 20.371 16.6895L20.888 17.1875C22.144 18.4425 23.208 20.1755 24.078 22.3905L24.545 23.5655C25.005 24.7345 25.781 26.6855 26.833 29.4815C27.6453 31.6529 28.4813 33.8154 29.341 35.9685L29.464 36.2685C29.533 36.4435 29.684 36.8355 29.894 37.5045C30.064 37.9075 30.19 38.3285 30.272 38.7585C30.425 39.2965 30.517 39.8495 30.547 40.4085C30.6214 41.1729 30.4426 41.9406 30.038 42.5935ZM193.307 24.0005V23.5975C193.31 23.3397 193.272 23.0832 193.194 22.8375C193.161 22.7514 193.111 22.6731 193.046 22.6077C192.981 22.5422 192.903 22.4911 192.817 22.4575L192.413 22.2625C192.56 22.2117 192.69 22.1226 192.791 22.0045C192.951 21.8145 193.062 21.5865 193.115 21.3435C193.136 21.2694 193.154 21.1943 193.168 21.1185C193.164 21.0896 193.164 21.0603 193.168 21.0315C193.182 20.9792 193.191 20.9256 193.194 20.8715V20.4875C193.199 20.4419 193.199 20.396 193.194 20.3505C193.199 20.0987 193.151 19.8488 193.054 19.6165C192.959 19.4431 192.805 19.3086 192.621 19.2365C192.537 19.2 192.45 19.1722 192.36 19.1535H192.266L192.146 19.1275H192.051C192.024 19.1332 191.996 19.1332 191.969 19.1275C191.923 19.1227 191.878 19.1147 191.833 19.1035C191.788 19.093 191.743 19.0856 191.697 19.0815C191.602 19.0915 191.506 19.0915 191.41 19.0815H191.207C191.154 19.0815 191.124 19.1995 191.12 19.4115C191.126 19.495 191.126 19.5789 191.12 19.6625V19.7575C191.116 19.7863 191.116 19.8156 191.12 19.8445C191.12 19.8715 191.12 19.9175 191.147 19.9935C191.141 20.0857 191.141 20.1782 191.147 20.2705V20.4835L191.151 20.9275C191.145 21.004 191.145 21.0809 191.151 21.1575V21.4745C191.147 21.5037 191.147 21.5333 191.151 21.5625C191.147 21.5775 191.147 21.5934 191.151 21.6085V21.6885C191.146 21.7058 191.146 21.7242 191.151 21.7415V22.5355C191.145 22.6205 191.145 22.7055 191.151 22.7915V23.8325C191.144 23.898 191.144 23.964 191.151 24.0295C191.151 24.0605 191.279 24.0875 191.505 24.1135H191.689C191.814 24.1135 191.875 24.0905 191.875 24.0715V24.0115C191.871 23.9978 191.871 23.9832 191.875 23.9695V23.7075C191.869 23.6771 191.869 23.6458 191.875 23.6155V23.1675C191.875 23.1175 191.875 23.0075 191.856 22.8105V22.6425C191.852 22.5909 191.852 22.5391 191.856 22.4875C191.856 22.4535 191.856 22.4335 191.886 22.4335C192.031 22.4755 192.17 22.5355 192.301 22.6135C192.41 22.6785 192.501 22.7715 192.564 22.8835C192.626 23.0775 192.666 23.2785 192.685 23.4835C192.691 23.5835 192.691 23.6855 192.685 23.7865V23.9425C192.68 24.0274 192.68 24.1125 192.685 24.1975C192.685 24.1975 192.738 24.2355 192.839 24.2505H192.942L193.137 24.2735H193.16C193.212 24.2815 193.267 24.2735 193.315 24.2505C193.298 24.2176 193.289 24.1814 193.288 24.1445C193.297 24.0929 193.297 24.0401 193.288 23.9885M192.282 21.6885C192.198 21.7873 192.084 21.8558 191.957 21.8835H191.92C191.92 21.8595 191.886 21.8365 191.875 21.8105V21.7605C191.881 21.7207 191.881 21.6803 191.875 21.6405C191.875 21.5255 191.852 21.2255 191.841 20.7465C191.841 20.5485 191.817 20.3315 191.792 20.0895C191.773 19.944 191.759 19.7979 191.75 19.6515C191.745 19.6009 191.745 19.55 191.75 19.4995C191.754 19.483 191.763 19.468 191.776 19.4565C191.789 19.4455 191.805 19.4386 191.822 19.4365H191.863C191.886 19.4454 191.911 19.4454 191.934 19.4365C191.98 19.4443 192.026 19.4553 192.07 19.4695C192.116 19.4782 192.161 19.4899 192.206 19.5045C192.29 19.5428 192.364 19.5984 192.425 19.6675C192.529 19.8195 192.585 20 192.583 20.1845C192.583 20.2525 192.583 20.3815 192.613 20.5445V20.9745C192.607 21.0811 192.586 21.1862 192.549 21.2865C192.48 21.4331 192.39 21.5679 192.282 21.6885Z" fill="#59432D"></path>
          <path d="M192.168 17.5085C191.343 17.5085 190.536 17.7555 189.852 18.2175C189.165 18.6807 188.631 19.3369 188.316 20.1035C188.001 20.8724 187.918 21.7171 188.079 22.5325C188.239 23.3465 188.636 24.0945 189.22 24.6845C189.8 25.2722 190.543 25.673 191.353 25.8355C192.162 25.998 193.002 25.9148 193.764 25.5965C194.528 25.2768 195.179 24.7377 195.636 24.0475C196.172 23.2377 196.413 22.2682 196.318 21.3019C196.224 20.3356 195.799 19.4311 195.117 18.7405C194.731 18.3509 194.272 18.0416 193.766 17.8305C193.259 17.6194 192.716 17.5106 192.168 17.5105V17.5085ZM189.084 20.1315C189.073 20.2054 189.041 20.2744 188.99 20.3295C189.02 20.2645 189.051 20.1955 189.088 20.1275M192.173 25.2005C191.624 25.2039 191.083 25.0734 190.596 24.8205C190.517 24.7335 190.446 24.6425 190.366 24.5505C190.101 24.2348 189.774 23.9766 189.405 23.7915C189.059 23.3354 188.831 22.801 188.741 22.2356C188.651 21.6703 188.702 21.0915 188.889 20.5505L189.416 19.6455C189.356 19.7015 189.299 19.7555 189.246 19.8155C189.337 19.683 189.435 19.5561 189.541 19.4355L189.416 19.6565L189.514 19.5545C189.635 19.4505 189.73 19.3202 189.793 19.1735C190.395 18.6084 191.18 18.2784 192.005 18.2435C192.83 18.2086 193.64 18.4712 194.287 18.9835C194.348 19.0995 194.419 19.2095 194.502 19.3105C194.58 19.3959 194.684 19.4547 194.797 19.4785C195.224 19.988 195.498 20.6081 195.586 21.2669C195.675 21.9256 195.576 22.596 195.299 23.2005C195.021 23.803 194.578 24.3142 194.021 24.6745C193.465 25.033 192.818 25.2239 192.157 25.2245M46.006 56.0005V47.6005H47.95V56.0005H46.006ZM49.943 56.0005V47.6005H51.551L56.507 53.6485H55.727V47.6005H57.647V56.0005H56.051L51.083 49.9525H51.863V56.0005H49.943ZM61.375 56.0005V49.1845H58.687V47.6005H66.007V49.1845H63.319V56.0005H61.375ZM72.885 50.9845V52.4965H68.84V50.9845H72.885ZM68.985 54.4405H73.557V56.0005H67.053V47.6005H73.4V49.1605H68.984L68.985 54.4405ZM75.103 56.0005V47.6005H78.739C79.491 47.6005 80.139 47.7245 80.683 47.9725C81.227 48.2125 81.647 48.5605 81.943 49.0165C82.239 49.4725 82.387 50.0165 82.387 50.6485C82.387 51.2725 82.239 51.8125 81.943 52.2685C81.647 52.7165 81.227 53.0605 80.683 53.3005C80.139 53.5405 79.491 53.6605 78.739 53.6605H76.183L77.047 52.8085V56.0005H75.103ZM80.443 56.0005L78.343 52.9525H80.419L82.543 56.0005H80.443ZM77.047 53.0245L76.183 52.1125H78.631C79.231 52.1125 79.679 51.9845 79.975 51.7285C80.271 51.4645 80.419 51.1045 80.419 50.6485C80.419 50.1845 80.271 49.8245 79.975 49.5685C79.679 49.3125 79.231 49.1845 78.631 49.1845H76.183L77.047 48.2605V53.0245ZM83.927 56.0005V47.6005H85.536L90.492 53.6485H89.712V47.6005H91.632V56.0005H90.036L85.068 49.9525H85.848V56.0005H83.927ZM92.515 56.0005L96.259 47.6005H98.179L101.935 56.0005H99.895L96.823 48.5845H97.591L94.507 56.0005H92.515ZM94.387 54.2005L94.903 52.7245H99.223L99.751 54.2005H94.387ZM104.125 56.0005V49.1845H101.437V47.6005H108.757V49.1845H106.069V56.0005H104.125ZM109.803 56.0005V47.6005H111.747V56.0005H109.803ZM117.82 56.1445C117.156 56.1445 116.54 56.0365 115.972 55.8205C115.429 55.6151 114.932 55.3053 114.508 54.9085C114.1 54.5164 113.774 54.0474 113.548 53.5285C113.32 52.9812 113.206 52.3933 113.212 51.8005C113.212 51.1765 113.324 50.6005 113.548 50.0725C113.78 49.5445 114.104 49.0845 114.52 48.6925C114.944 48.2957 115.441 47.9858 115.984 47.7805C116.567 47.5604 117.185 47.4505 117.808 47.4565C118.472 47.4565 119.08 47.5645 119.632 47.7805C120.192 47.9965 120.676 48.3005 121.084 48.6925C121.507 49.0908 121.843 49.5727 122.071 50.1078C122.298 50.6428 122.411 51.2192 122.404 51.8005C122.404 52.4245 122.288 53.0045 122.056 53.5405C121.829 54.0616 121.498 54.5311 121.084 54.9205C120.663 55.3124 120.17 55.6181 119.632 55.8205C119.054 56.0413 118.439 56.1512 117.82 56.1445ZM117.808 54.4885C118.184 54.4885 118.528 54.4245 118.84 54.2965C119.157 54.1721 119.444 53.983 119.684 53.7413C119.924 53.4995 120.11 53.2104 120.232 52.8925C120.368 52.5645 120.436 52.2005 120.436 51.8005C120.436 51.4005 120.368 51.0365 120.232 50.7085C120.11 50.389 119.922 50.0988 119.68 49.8565C119.447 49.6155 119.164 49.4273 118.852 49.3045C118.52 49.1742 118.165 49.109 117.808 49.1125C117.432 49.1125 117.084 49.1765 116.764 49.3045C116.454 49.4312 116.172 49.6189 115.936 49.8565C115.696 50.0965 115.508 50.3805 115.372 50.7085C115.24 51.0573 115.175 51.4277 115.18 51.8005C115.18 52.1925 115.244 52.5565 115.372 52.8925C115.508 53.2205 115.692 53.5045 115.924 53.7445C116.164 53.9845 116.444 54.1685 116.764 54.2965C117.084 54.4245 117.432 54.4885 117.808 54.4885ZM123.865 56.0005V47.6005H125.473L130.429 53.6485H129.649V47.6005H131.569V56.0005H129.973L125.005 49.9525H125.785V56.0005H123.865ZM132.453 56.0005L136.197 47.6005H138.117L141.873 56.0005H139.833L136.761 48.5845H137.529L134.445 56.0005H132.453ZM134.325 54.2005L134.841 52.7245H139.161L139.689 54.2005H134.325ZM142.744 56.0005V47.6005H144.688V54.4165H148.9V56.0005H142.744Z" fill="#59432D"></path>
        </svg>